<?xml version="1.0" encoding="UTF-8"?>
<svg id="Capa_2" data-name="Capa 2" xmlns="http://www.w3.org/2000/svg" viewBox="0 0 271.54 292.39">
  <defs>
    <style>
      .cls-1 {
        fill: #d6c2a7;
      }

      .cls-1, .cls-2, .cls-3, .cls-4, .cls-5, .cls-6 {
        stroke-width: 0px;
      }

      .cls-2 {
        fill: #b99348;
      }

      .cls-3 {
        fill: #b77f1c;
      }

      .cls-7 {
        stroke: #b77f1c;
        stroke-width: 2px;
      }

      .cls-7, .cls-4 {
        fill: #e5bb45;
      }

      .cls-7, .cls-8 {
        stroke-miterlimit: 10;
      }

      .cls-5 {
        fill: #cba252;
      }

      .cls-6 {
        fill: #ba996e;
      }

      .cls-8 {
        fill: #d8c2a7;
        stroke: #ba996e;
      }
    </style>
  </defs>
  <g id="mono">
    <g>
      <g>
        <path class="cls-4" d="M180.94,270.74l3.81-20.22-3.81-26.65s-23.47-42.46-27.9-51.03c-4.44-8.57-21.56-47.36-21.56-47.36,0,0,32.98-26.12,41.22-24.11,8.24,2.01,47.56-3.16,47.56-3.16,0,0,15.22-4.07,29.17-11.82,13.95-7.75,20.29-12.66,20.29-12.66l-64.05-3.33s-43.13-1.58-52,3.33-26.64,16.13-26.64,16.13v15.68s-13.05,21.8-12.23,32.02,5.89,12.93,5.89,12.93c0,0-5.07-12.69-27.9-4.21-22.83,8.48-35.51,16.73-35.51,16.73l4.44-5.17s-43.76-3.77-52.64,29.56C.19,220.71,2.73,267.99,2.73,267.99l8.88,22.48,20.93-22.48s13.32-34.59,13.32-41.89,23.47-47.87,23.47-47.87c0,0,7.61,21.55,9.51,21.55s31.71,38.74,40.59,43.78c8.88,5.05,26.64,19,26.64,19l29.81,8.17h5.07Z"/>
        <path class="cls-3" d="M180.88,270.66l3.63-20.19c.02.39-3.99-26.62-3.99-26.54.38.78-26.72-48.3-26.61-48.09-7.48-14.06-16.46-35.35-23.17-50.03,0,0-.26-.58-.26-.58l.5-.39c6.33-4.96,12.79-9.71,19.48-14.17,5.06-3.31,10.19-6.61,15.82-8.95,2.03-.76,3.99-1.56,6.29-1.27,0,0,1.47.22,1.47.22,1.43.22,2.91.23,4.37.25,13.79-.1,28.38-1.96,41.65-3.52,8.8-2.51,17.48-5.81,25.68-9.91,8.11-4.24,16.18-8.94,23.61-14.27,0,0,.36,1.14.36,1.14-12.55-.74-43.23-2.42-55.28-3.12-15.26-.87-30.84-1.13-46.07-.05-4.88.5-10.02.72-14.52,2.8-3.67,2.07-7.33,4.25-10.92,6.44-5.25,3.2-10.47,6.45-15.67,9.74l.18-.33.04,15.68c-3.95,7.18-7.9,14.57-10.48,22.4-1.28,3.87-2.16,7.88-1.39,11.87.64,3.78,2.09,7.97,5.35,10.2,0,0-.76.68-.76.68-1.17-2.45-3.59-4.39-6.11-5.4-8.19-3.22-17.24.07-25.02,3.11-12.36,4.87-24.5,10.66-35.62,17.91,1.83-2.14,5.81-6.83,7.67-9,0,0,.54,1.31.54,1.31-14.75-.6-30.95,2.33-42.1,12.63-3.26,3.06-5.8,6.82-7.63,10.88-1.79,4.15-2.71,8.61-3.66,13.02-4.7,23.88-5.32,48.51-4.47,72.78-.49-1.55,8.89,22.45,8.79,22.16,0,0-1.73-.33-1.73-.33,0,0,20.94-22.47,20.94-22.47,2.04-5.82,5.7-15.34,8.06-22.56,2.23-6.7,4.56-13.51,5.3-20.51,2.71-8.87,7.39-16.89,11.59-25.08,4.11-7.68,8.38-15.28,12.76-22.81,1.79,5.09,3.65,10.2,5.7,15.19,1.16,2.57,2.07,5.38,3.77,7.54,0,0,.03.03.03.03-.02-.02-.09-.05-.13-.04.63.1,1.3.78,1.8,1.28,7.41,8.05,14.12,16.68,21.31,24.88,4.77,5.44,9.5,10.98,14.89,15.81,1.8,1.67,3.93,2.71,5.94,4.03,8.15,5.33,15.82,11.26,23.45,17.24-.61-.12,29.87,8.3,29.6,8.3,0,0,5.01.06,5.01.06h0ZM181,270.82s-5.14.06-5.14.06c-.15-.06-29.89-7.93-30.01-8.04-7.68-5.87-15.45-11.7-23.57-16.94-2.05-1.31-4.3-2.44-6.09-4.08-5.49-4.83-10.27-10.37-15.11-15.81-7.58-8.38-14.39-17.5-22.34-25.48-.06-.04-.06-.03-.08-.05,0,0,.1.04.15.03.07,0-.06-.01-.09-.02,0,0-.16-.04-.16-.04-.18-.03-.31-.13-.44-.22-2.06-2.17-3.06-5.49-4.31-8.13-1.88-4.49-3.59-9.03-5.24-13.6l1.44.13c-6,10.58-11.87,21.26-17.22,32.19-2.23,4.95-5.03,9.83-5.94,15.17-.62,6.72-3.1,13.04-5.09,19.4-2.62,7.79-5.42,15.49-8.34,23.16,0,0-.14.15-.14.15,0,0-20.91,22.49-20.91,22.49l-1.12,1.21s-.61-1.54-.61-1.54c0,0-8.89-22.48-8.89-22.48,0,0-.06-.16-.06-.16-.3-6.2-.37-12.38-.32-18.56.19-18.39,1.33-36.81,5-54.89,2.4-13.26,7.33-23.53,19.45-30.4,11.37-6.38,24.69-8.11,37.54-7.23-.82.91-4.63,5.39-5.5,6.37,0,0-1.01-1.15-1.01-1.15,11.33-6.86,23.48-12.12,35.85-16.72,9.64-3.66,24.64-5.57,29.26,6.28-1.42-.79-3.02-1.9-3.93-3.19-4.49-6.04-4.53-14.24-1.97-21.08,2.67-7.83,6.46-15.18,10.6-22.32,0,0-.06.22-.06.22,0,0,.04-15.68.04-15.68v-.21s.18-.11.18-.11c8.82-5.49,17.64-10.99,26.7-16.08,1.75-.9,3.69-1.34,5.59-1.71,6.08-1.14,12.25-1.44,18.41-1.71,9.23-.33,18.47-.29,27.71-.03,16.87.82,47.44,2.28,64.53,3.09,0,0,1.78.08,1.78.08-4.18,3.21-8.57,6.05-13.03,8.77-11.82,7.41-24.57,13.3-38.03,17.07-7.99,1.06-16,1.94-24.02,2.68-7.02.57-14.07,1.28-21.13.9-.95-.01-2.14-.29-3.06-.39-3.74-.17-7.35,2.07-10.67,3.68-10.45,5.79-20.15,12.94-29.62,20.22,0,0,.24-.96.24-.96,6.58,14.45,15.64,36.16,22.89,50.06-.02.14,26.32,48.45,26.26,48.59,0,.03,3.63,26.68,3.63,26.72,0,.04-3.98,20.25-3.99,20.29h0Z"/>
      </g>
      <path class="cls-5" d="M68.28,159.71s-10.78,2.22-17.44,0-27.59-8.88-34.56-5.71-17.76,6.66-14.27,19.34,9.83,18.71,9.83,18.71c0,0-21.88-24.73-2.85-49.15l8.88-13s13.64-15.85,24.1-19.03,19.03-5.39,19.03-5.39c0,0,0,25.05,2.85,32.03,2.85,6.98,4.44,13.5,4.44,13.5v8.7Z"/>
      <path class="cls-7" d="M9.07,187.39c-7.35-7.88-9.72-18.07-5.91-25,4.72-8.59,17.18-9.03,20.43-9.14,0,0,4.41-.15,23.36,5.21h0s-5.93,1.21-12.48,3.42c-5.16,1.75-10.83,4.21-16.12,9.45-5.52,5.46-8.06,11.74-9.28,16.06Z"/>
      <path class="cls-8" d="M66.97,160.94s-22.67-3.24-27.75-5.62-16.81-5.26-25.05-2.08c-8.24,3.19-10.6,5.72-11.78,8.58l-1.18,2.85s1.67-10.03,4.72-15.9,11.57-16.13,11.57-16.13c0,0,7.29-9.99,12.05-12.37s-.63-1.74,8.24-5.71,15.54-6.02,17.28-6.18l1.74-.16s6.66,41.06,8.72,46.61c2.06,5.55,2.95,6.1,2.95,6.1h-1.52Z"/>
      <path class="cls-8" d="M112.64,153.24s-28.54-2.84-39.32,11.43c-10.78,14.27-16.64,27.38-16.64,27.38l-14.44,30.64s0,5.07-3.17,14.59c-3.17,9.51-8.03,29.17-8.03,29.17l-18.6,20.72-8.03-19.45s-1.9-73.14,7.82-84.56c9.72-11.42,20.15-21.01,29.38-22.23s28.75-.6,31.5-1.45,9.94-4.5,17.55-6.48c7.61-1.98,21.99.23,21.99.23Z"/>
      <path class="cls-8" d="M120.69,150.49s8.78-29.09,17.48-36.79,29-17.21,36.61-17.21c0,0,36.78,1.13,48.2-3.88s41.9-19.13,41.9-19.13l-72.1-3.32-36.21,2.47-29.55,17.23,2.06,20.05s-7.95,15.11-8.4,22.08,0,18.48,0,18.48Z"/>
      <g>
        <path class="cls-1" d="M129.09,109.92l-3.62-38.67,9.42-24.5s6.74-26.99.88-33.67c-5.86-6.68-20.24-22.09-39.43-4.98-19.19,17.11-35.39,44.89-37.57,66.96s-2.1,24.23-2.1,24.23c0,0,2.91,31.37,6.41,44.17,3.5,12.8,5.4,17.47,5.4,17.47,0,0,24.78-14.3,32.22-12.86,7.45,1.44,19.97,2.41,19.97,2.41,0,0-.66-16.86,3.34-29.72,3.76-12.1,5.06-10.84,5.06-10.84Z"/>
        <path class="cls-6" d="M129.07,109.88c-1.01-9.66-2.94-29.01-3.9-38.67.05-.05,9.37-24.69,9.35-24.56,1.16-4.96,2.08-10,2.67-15.06.29-2.53.52-5.07.56-7.61-.05-3.66.02-7.8-2.35-10.75-5.62-6.59-13.23-12.98-22.37-12.61-7.76.29-14.32,5.29-19.67,10.55-9.22,8.86-16.88,19.3-22.99,30.5-6.07,11.22-10.63,23.42-11.49,36.21,0,0-.7,7.65-.7,7.65l-.65,7.65c-.1,2.18-.59,5.4-.25,7.58,1.73,15.21,3.03,30.6,7.09,45.39,1.39,4.91,2.82,9.85,4.59,14.59l-.73-.25c4.01-2.28,8.09-4.42,12.24-6.44,4.16-1.99,8.38-3.87,12.8-5.28,2.22-.66,4.48-1.33,6.92-1.18,6.83,1.24,13.62,1.96,20.52,2.56,0,0-.36.34-.36.34-.13-7.07.31-14.14,1.46-21.12.87-5.23,2.42-10.33,4.41-15.24.7-1.46,1.21-3.23,2.53-4.25.08-.05.29-.09.31-.02h0ZM129.11,109.97c-.25-.09-.4.08-.56.21-1.02,1.14-1.55,2.64-2.14,4.04-1.9,4.92-3.34,10.03-4.13,15.24-1.08,6.94-1.45,14.01-1.26,21.02,0,0,.01.37.01.37,0,0-.37-.03-.37-.03-6.84-.54-13.79-1.23-20.54-2.41-2.18-.12-4.43.53-6.58,1.2-4.33,1.42-8.51,3.34-12.63,5.34-4.12,2.01-8.18,4.16-12.16,6.42,0,0-.52.3-.52.3l-.21-.55c-3.46-9.7-6.37-19.58-7.9-29.76-1.64-10.8-3-21.62-3.89-32.5.36-6.3,1.31-14.75,1.91-21.06.97-12.85,5.69-25.15,11.83-36.35,6.2-11.22,13.98-21.58,23.11-30.58,7.11-7.36,17.09-13.58,27.58-9.69,6.16,2.15,11.08,6.71,15.31,11.52,3.75,4.74,2.58,13.29,2.1,18.98-.64,5.11-1.59,10.17-2.8,15.17-.04-.05-9.61,24.94-9.5,24.36.85,9.66,2.54,29.09,3.34,38.74h0Z"/>
      </g>
      <path class="cls-2" d="M180.94,270.74s-4.88-33.46-15.67-43.6c-10.78-10.15-26.72-49.47-29.21-50.1s-15.37-26.55-15.37-26.55"/>
      <path class="cls-2" d="M129.04,109.9c.92-3.66,3.53-6.35,5.93-9.12,2.73-2.5,6.42-3.65,9.99-4.33,0,0,.03.1.03.1-3.1,1.8-6.64,2.86-9.67,4.65-1.5,1.01-2.42,2.65-3.22,4.24-.9,1.55-1.87,3.06-2.98,4.52l-.09-.04h0Z"/>
    </g>
  </g>
</svg>