<?xml version="1.0" encoding="UTF-8"?>
<svg id="Capa_2" data-name="Capa 2" xmlns="http://www.w3.org/2000/svg" viewBox="0 0 151.91 360.72">
  <defs>
    <style>
      .cls-1, .cls-2, .cls-3, .cls-4 {
        stroke-width: 0px;
      }

      .cls-1, .cls-5 {
        fill: #544119;
      }

      .cls-2 {
        fill: #d1ad73;
      }

      .cls-3 {
        fill: #ede64d;
      }

      .cls-5 {
        stroke: #544119;
        stroke-miterlimit: 10;
      }

      .cls-4 {
        fill: #573e16;
      }
    </style>
  </defs>
  <g id="mono">
    <g>
      <g>
        <path class="cls-2" d="M104.25,315.05s7.68,10.33,8.7,13.68,2.71,19.96,2.71,19.96l7.89,5.91s-4.3,5.82-18.39,5.81c-14.09,0-17.99-.32-17.99-.32,0,0-4.27-4.79-2.36-13.21s-.35-11.01-.35-11.01l17.05-11.41,2.73-9.41Z"/>
        <path class="cls-1" d="M104.24,315c3.3,4.25,6.63,8.44,8.95,13.3,1.07,3.68,1.34,7.52,1.91,11.29.36,3.02.68,6.03.96,9.06l-.16-.28,7.79,6.04s.2.16.2.16l-.16.17c-7.18,6.9-17.95,5.74-27.12,5.97-3.16,0-6.29-.02-9.48-.17,0,0-.19,0-.19,0l-.11-.14c-2.73-3.48-3.45-8.07-2.78-12.32.66-3.52,1.56-7.12.58-10.64-.19-.69-.5-1.2-.89-1.69,2.98-2.01,6.01-3.95,9.01-5.93,0,0,8.61-5.58,8.61-5.58.5-2.31,2.1-6.46,2.88-9.24h0ZM104.26,315.1c-.97,3.25-1.56,6.58-2.59,9.59-4.97,3.46-11.98,8.26-16.92,11.6,0,0,.1-.75.1-.75.73,1.03.92,2.05,1.12,3.21.44,3.1-.24,6.46-.86,9.49-.69,3.93-.03,8.37,2.42,11.55,0,0-.3-.15-.3-.15,3.11.21,6.27.28,9.41.37,8.97.1,19.87,1.43,26.74-5.55,0,0,.05.33.05.33l-7.98-5.78s-.14-.1-.14-.1c0,0-.02-.18-.02-.18l-1.06-9.03c-.72-4.4-.53-9.15-2.65-13.16-2.06-3.79-4.95-7.85-7.3-11.45h0Z"/>
      </g>
      <g>
        <path class="cls-4" d="M26.43,65.95l10.52-10.06L19.38,12.18,35.88.18s7.71,1.93,11.57,2.57l3.86.64,11.79,47.87-6.43,17.49-30.23-2.8Z"/>
        <path class="cls-1" d="M26.38,65.96l5.13-5.09c1.71-1.73,3.48-3.47,5.24-5.19l-.07.32c-3.03-7.24-5.96-14.53-8.93-21.8l-4.36-10.94-4.27-10.98-.08-.2.17-.12c2.77-1.97,5.55-3.93,8.3-5.92,2.76-1.99,5.52-3.97,8.26-5.99l.06-.04.08.02c2.55.62,5.11,1.22,7.68,1.76,2.56.56,5.16.93,7.76,1.34l.17.03.04.18,6.09,23.89,3,11.95,2.94,11.97.04.15-.05.15-3.23,8.74-3.29,8.72-.12.3-.31-.03-30.24-3.2ZM26.48,65.93l30.22,2.4-.43.27,3.14-8.77,3.2-8.75-.02.3-2.95-11.97-2.9-11.98-5.7-23.98.22.2-3.88-.69c-1.3-.24-2.59-.52-3.87-.81-2.57-.58-5.12-1.19-7.67-1.83l.13-.03c-2.76,1.98-5.5,4-8.24,6.01-2.75,2-5.47,4.04-8.2,6.08l.09-.32,4.52,10.88,4.43,10.92c2.89,7.3,5.81,14.59,8.64,21.92l.07.18-.14.13c-1.74,1.63-3.48,3.24-5.28,4.86-1.79,1.63-3.6,3.28-5.39,4.97Z"/>
      </g>
      <g>
        <path class="cls-3" d="M75.95,341.32l-34.71-12.86-15.43-26.36,3.86-71.36-12.86-16.07v-56.57s-12.21-20.57-6.43-36c5.79-15.43,7.07-53.36,18.64-57.86s36-16.07,43.71-12.21c7.71,3.86,56.57,48.21,56.57,48.21,0,0,23.79,82.93,13.5,129.86s-9,65.57-9,65.57l-20.57,19.29s-16.07,18-23.79,21.21c-7.71,3.21-13.5,5.14-13.5,5.14Z"/>
        <path class="cls-1" d="M75.95,341.37l-34.8-12.68-.08-.03-.04-.07-15.48-26.33-.05-.08v-.09s3.72-71.36,3.72-71.36l.1.3-12.83-16.09-.09-.11v-.14s.11-56.57.11-56.57l.04.15c-2.25-4.03-4.08-8.27-5.5-12.66-1.38-4.39-2.34-8.94-2.44-13.56l-.03-.86.05-.87.1-1.73c.08-1.15.35-2.28.52-3.43.3-1.11.65-2.23.99-3.32.39-1.07.74-2.16,1.06-3.25,1.26-4.4,2.13-8.9,3-13.4l2.55-13.52c.89-4.5,1.85-8.99,3.16-13.4.66-2.2,1.42-4.38,2.37-6.48.97-2.08,2.07-4.16,3.75-5.8.81-.85,1.83-1.48,2.9-1.95l3.19-1.29,6.35-2.64c4.24-1.75,8.49-3.48,12.82-5.02,4.33-1.53,8.71-2.96,13.27-3.73,2.27-.35,4.63-.6,6.95-.03,2.32.72,4.05,2.33,5.93,3.63,3.64,2.8,7.19,5.71,10.7,8.67,14.03,11.83,27.75,24,41.37,36.3l.1.09.03.12c4.39,15.92,7.94,32.05,10.79,48.31,2.79,16.26,4.89,32.68,5.27,49.21.16,8.26-.02,16.55-1.17,24.76l-.44,3.07-.58,3.05c-.37,2.04-.84,4.04-1.27,6.06-.89,4.02-1.67,8.07-2.48,12.11-1.54,8.09-2.91,16.22-3.99,24.38-.51,4.08-1,8.17-1.31,12.28-.31,4.09-.58,8.23-.44,12.3v.16s-.1.1-.1.1l-20.62,19.23.02-.02c-2.61,2.87-5.29,5.67-8.04,8.4-2.76,2.72-5.59,5.38-8.57,7.86-1.5,1.23-3.03,2.43-4.68,3.46-.42.25-.82.53-1.25.75l-1.31.65-2.69,1.09c-3.61,1.43-7.21,2.78-10.92,4.02ZM75.95,341.27c3.62-1.26,7.26-2.66,10.84-4.12l2.68-1.12,1.28-.65c.42-.22.82-.51,1.23-.76,1.62-1.04,3.13-2.25,4.62-3.49,2.95-2.5,5.74-5.18,8.47-7.92,2.73-2.74,5.39-5.55,7.98-8.43h0s0-.02,0-.02l20.52-19.34-.1.26c-.16-4.17.08-8.28.38-12.4.3-4.12.76-8.22,1.25-12.32,1.04-8.19,2.36-16.34,3.87-24.45.79-4.05,1.55-8.1,2.42-12.14.41-2.02.87-4.04,1.24-6.05l.57-3.02.44-3.05c1.14-8.13,1.33-16.38,1.18-24.6-.37-16.46-2.45-32.84-5.22-49.07-2.83-16.22-6.38-32.34-10.74-48.22l.13.21c-13.61-12.29-27.23-24.58-41.2-36.45-3.49-2.96-7.02-5.89-10.64-8.7-1.85-1.3-3.62-2.91-5.71-3.55-2.15-.55-4.48-.33-6.71,0-4.5.74-8.88,2.15-13.19,3.66-4.32,1.53-8.57,3.23-12.81,4.97l-6.36,2.62-3.2,1.28c-1.02.45-1.99,1.03-2.77,1.85-1.62,1.57-2.73,3.62-3.69,5.67-.95,2.08-1.71,4.24-2.37,6.42-2.61,8.78-4.02,17.87-5.7,26.88-.85,4.51-1.7,9.02-2.95,13.45-.32,1.11-.66,2.2-1.05,3.29-.33,1.09-.67,2.17-.96,3.27-.16,1.12-.42,2.24-.5,3.37l-.09,1.7-.04.85.03.85c.11,4.56,1.08,9.06,2.47,13.41,1.42,4.33,3.26,8.55,5.5,12.51l.04.07v.08s.11,56.57.11,56.57l-.09-.26,12.88,16.05.11.13v.17s-4.01,71.35-4.01,71.35l-.04-.17,15.38,26.39-.12-.1,34.63,13.03Z"/>
      </g>
      <g>
        <path class="cls-2" d="M33.56,316.01l.19,18.91s-3.39,7.86-5.2,13.3c-1.29,3.87-1.88,6.34-.94,7.99.54.94,1.41,1.37,1.97,1.64,9.21,4.48,23.34.77,23.34.77,5.65-1.49,6.47-2.62,6.66-3.53.55-2.6-3.64-5.41-4.02-5.66l3.67-16.24-8.08-3.28-17.61-13.91Z"/>
        <path class="cls-1" d="M33.59,316.05c.19,5.55.48,13.42.57,18.86-1.49,3.82-3.12,7.64-4.53,11.5-.89,2.81-2.37,5.69-2.11,8.67.13.94.74,1.75,1.58,2.24,1.75.93,3.68,1.65,5.68,2,6.03,1.15,12.18.44,18.12-1.02,1.52-.47,3.62-1.05,5.13-1.97,3.14-1.89-.8-5.25-2.71-6.51,0,0-.27-.18-.27-.18l.07-.32c.87-4.05,2.7-12.2,3.64-16.24,0,0,.31.59.31.59-2.71-1.1-5.42-2.21-8.12-3.35-5.84-4.69-11.47-9.49-17.35-14.27h0ZM33.54,315.96c5.16,3.96,13.16,9.84,17.8,13.53,2.84,1.11,5.67,2.25,8.5,3.39,0,0-.1.42-.1.42-.9,4.05-2.74,12.19-3.7,16.23,0,0-.2-.5-.2-.5,2,1.49,4.8,3.61,4.07,6.46-.29.75-.91,1.2-1.47,1.53-1.71.96-3.61,1.44-5.48,1.91-7.86,1.55-16.62,2.37-24.1-1.2-4.02-2.27-.94-8.27-.02-11.6,1.27-3.6,3.15-8.33,4.52-11.21-.06-5.58.14-13.33.18-18.96h0Z"/>
      </g>
      <g>
        <path class="cls-2" d="M133.81,290.15s1.95,3.26,2.34-1.5l.39-4.76s6.31,10.2,6.77,12.65,1.87,2.99,1.87,2.99c0,0,5.37-1.36,5.84-6.53.47-5.17,1.64-12.37-.62-15.91s-14.93-17.85-14.93-17.85l-1.65,30.9Z"/>
        <path class="cls-1" d="M133.85,290.14c.21.29.48.62.78.82.31.24.67.2.85-.13.34-.64.39-1.46.45-2.23l.28-4.74.06-.96.53.82c1.64,2.53,3.17,5.12,4.64,7.75.72,1.33,1.46,2.64,2.01,4.1.14.33.26.83.33,1.14.07.34.18.68.32.99.26.61.74,1.21,1.22,1.46l-.25-.02c1.83-.51,3.63-1.62,4.7-3.25,1.16-1.62,1.07-3.76,1.35-5.76.23-2.02.44-4.04.44-6.06,0-2.01-.11-4.08-.9-5.9-.38-.89-1.02-1.68-1.65-2.47-.63-.79-1.28-1.57-1.94-2.34-1.31-1.55-2.63-3.09-3.97-4.62-2.65-3.07-5.36-6.11-8.05-9.14l.92-.32-.44,7.69c-.14,2.56-.34,5.13-.5,7.7l-.56,7.72c-.18,2.58-.42,5.17-.64,7.76ZM133.76,290.17c.06-2.56.1-5.12.19-7.69l.27-7.73c.11-2.58.19-5.17.33-7.76l.39-7.76.07-1.29.86.97c2.69,3.05,5.32,6.15,7.94,9.26,1.3,1.57,2.59,3.14,3.85,4.74.63.8,1.25,1.61,1.85,2.43.59.83,1.23,1.66,1.62,2.65.39.98.58,2,.67,3.02.1,1.02.14,2.05.11,3.07-.05,2.04-.24,4.07-.42,6.09l-.28,3.04c-.07,1.04-.42,2.07-.96,2.98-1.1,1.83-2.93,3.08-4.97,3.74l-.13.04-.12-.06c-.88-.42-1.34-1.13-1.7-1.86-.17-.37-.3-.76-.39-1.14-.1-.42-.16-.66-.31-1.02-.55-1.34-1.24-2.68-1.94-4-1.41-2.64-2.94-5.22-4.44-7.82l.59-.14-.49,4.72c-.12.79-.19,1.61-.64,2.35-.14.17-.32.36-.58.36-.25.02-.45-.1-.61-.23-.33-.27-.55-.58-.76-.96Z"/>
      </g>
      <g>
        <path class="cls-2" d="M27.94,262.68s-13.6,16.18-16.49,17.04c-2.89.86-8.04,6.27-8.46,9.67s-2.68,3.94-2.79,6.08.11,3.43.64,4.82,1.71,1.93,3,.75,2.89-.21,5.46-.11,4.82-5.14,6.43-5.36,3.43-1.07,5.57-4.82,2.55-5.46,4.07-7.18,2.56-20.89,2.56-20.89Z"/>
        <path class="cls-1" d="M27.92,262.72c-2.54,3.4-5.41,6.73-8.28,9.96-1.46,1.6-2.94,3.19-4.51,4.71-.79.76-1.58,1.51-2.52,2.15-.21.17-.49.32-.78.45-.31.16-.5.21-.74.3-.46.21-.91.46-1.34.75-1.74,1.17-3.29,2.7-4.59,4.38-.64.85-1.23,1.75-1.64,2.72-.2.5-.31.98-.4,1.53-.08.55-.25,1.09-.47,1.59-.42,1.04-1.23,1.84-1.8,2.72-.62.87-.51,1.98-.49,3.05.04,1.07.25,2.12.66,3.1.19.48.47.91.88,1.13.4.23.88.16,1.28-.1.22-.13.36-.28.6-.48.23-.2.51-.35.8-.44.6-.19,1.2-.14,1.74-.08,1.09.14,2.17.37,3.15.33.43-.02.86-.24,1.25-.55.4-.29.76-.67,1.11-1.06.7-.79,1.32-1.66,2.05-2.51.39-.41.72-.86,1.38-1.18.43-.16.63-.14.87-.21.24-.05.47-.13.7-.22.9-.38,1.68-1.05,2.34-1.84,1.32-1.59,2.29-3.53,3.28-5.44.49-.96.94-1.95,1.54-2.91.3-.48.66-.95,1.01-1.36.17-.24.36-.82.48-1.3.5-2.05.77-4.21,1.04-6.34.54-4.26.92-8.64,1.39-12.86ZM27.96,262.63c-.03,4.43-.28,8.69-.65,13.03-.21,2.16-.42,4.32-.88,6.49-.16.56-.21,1.07-.65,1.72-.35.41-.65.8-.92,1.25-.54.88-.99,1.86-1.48,2.83-.48.98-.99,1.95-1.52,2.9-.54.96-1.13,1.91-1.88,2.76-.73.85-1.64,1.64-2.75,2.08-.28.11-.56.2-.85.26-.28.06-.64.1-.71.15-.33.14-.72.54-1.06.92-.7.78-1.34,1.67-2.1,2.48-.38.41-.78.81-1.27,1.14-.46.34-1.04.64-1.7.67-1.19.01-2.24-.27-3.29-.44-.52-.08-1.03-.13-1.47-.01-.22.06-.43.16-.62.31-.18.14-.44.36-.69.5-.51.31-1.25.4-1.8.05-.55-.33-.85-.88-1.04-1.41-.38-1.04-.58-2.14-.61-3.24-.02-.55,0-1.09.03-1.64.03-.57.25-1.12.56-1.59.62-.92,1.36-1.71,1.74-2.7.2-.49.35-.99.42-1.52.07-.52.2-1.1.39-1.61.38-1.05.95-2,1.57-2.9,1.27-1.79,2.76-3.43,4.57-4.74.46-.32.95-.61,1.47-.85.26-.11.59-.21.76-.32.2-.1.4-.19.61-.37.42-.3.82-.63,1.22-.99.4-.34.79-.71,1.19-1.08,1.56-1.47,3.06-3.03,4.55-4.6l8.88-9.53Z"/>
      </g>
      <g>
        <path class="cls-1" d="M33.24,64.34s-3.94,1.47-6.73,4.4c-.83.87-1.56,1.88-2.05,3.01-2.14,4.93-3.64,9.21-3.64,9.21,0,0,9.21-10.93,14.78-12.22s6.44,4.79,6.92,10.22,5.25,5.43,8.17,9.29,12.42,21.21,12.42,21.21c0,0-16.24-34.66-12.42-44.93s9.38,6.75,12.42-.2,9.64-12.31,9.64-12.31c0,0-6.97-2.51-22.93,3.88-15.97,6.39-16.56,8.43-16.56,8.43Z"/>
        <path class="cls-1" d="M33.27,64.38c-1.69.73-3.24,1.62-4.67,2.72-1.41,1.09-2.69,2.39-3.54,3.94-.77,1.58-1.41,3.3-2.07,4.97-.65,1.68-1.27,3.37-1.86,5.07l-.59-.34c1.92-2.29,3.97-4.44,6.14-6.49,1.09-1.02,2.21-2.01,3.4-2.93,1.18-.92,2.42-1.79,3.83-2.43,1.39-.62,3.03-1.05,4.64-.51.8.25,1.45.82,1.97,1.43.51.63.85,1.34,1.13,2.06.54,1.45.79,2.94.99,4.43.23,1.48.18,3.01.59,4.32.24.65.55,1.28,1.01,1.81.45.53.99,1.01,1.57,1.44,1.17.86,2.48,1.62,3.61,2.64,1.17.99,1.99,2.31,2.77,3.55.78,1.26,1.54,2.54,2.29,3.82,3,5.12,5.86,10.31,8.75,15.49l-.31.16c-2.78-6.04-5.4-12.14-7.71-18.38-1.15-3.12-2.23-6.27-3.18-9.46-.93-3.2-1.76-6.44-2.18-9.78-.21-1.66-.34-3.36-.17-5.07.04-.43.13-.86.19-1.28.1-.42.23-.85.36-1.27.31-.8.66-1.6,1.2-2.33.29-.36.61-.72,1.05-.97.42-.28.99-.38,1.5-.33,1.03.12,1.79.68,2.47,1.21,1.35,1.07,2.44,2.38,3.7,3.24.31.21.64.37.92.4.29.04.51-.03.75-.21.48-.42.76-1.15,1.14-1.93.74-1.53,1.62-2.97,2.6-4.34,1.98-2.73,4.26-5.19,6.85-7.38l.14.85c-.73-.23-1.63-.35-2.47-.42-.86-.08-1.72-.08-2.59-.06-1.73.05-3.47.27-5.19.55-3.44.61-6.82,1.59-10.12,2.77-3.3,1.19-6.56,2.54-9.79,3.93-1.61.71-3.22,1.43-4.78,2.22-.78.4-1.56.81-2.31,1.27-.73.47-1.53.91-2.05,1.61ZM33.2,64.31c.51-.73,1.3-1.2,2.02-1.7.74-.48,1.51-.92,2.28-1.35,1.55-.85,3.14-1.62,4.73-2.38,3.21-1.47,6.44-2.87,9.75-4.12,3.31-1.24,6.7-2.29,10.19-2.97,1.75-.32,3.51-.57,5.3-.65.89-.04,1.79-.05,2.69.02.91.06,1.78.15,2.73.43l.84.25-.7.6c-2.46,2.12-4.73,4.56-6.63,7.21-.95,1.33-1.8,2.73-2.5,4.19-.36.69-.63,1.59-1.41,2.29-.41.35-1.03.53-1.57.44-.54-.08-.97-.32-1.35-.56-1.49-1.01-2.53-2.32-3.78-3.31-.61-.49-1.28-.94-1.92-1-.62-.09-1.19.3-1.65.89-1.89,2.57-1.85,6.01-1.45,9.23.86,6.52,2.87,12.88,5.03,19.13,2.22,6.24,4.67,12.42,7.43,18.45l-.31.16c-2.83-5.21-5.75-10.37-8.79-15.46-.76-1.27-1.55-2.52-2.35-3.76-.82-1.23-1.62-2.46-2.75-3.37-1.1-.95-2.39-1.66-3.62-2.53-.62-.44-1.21-.94-1.73-1.52-.52-.59-.9-1.3-1.18-2.03-.24-.74-.37-1.54-.44-2.27-.08-.73-.15-1.47-.25-2.19-.2-1.45-.46-2.9-.97-4.23-.5-1.31-1.33-2.54-2.59-2.95-1.25-.42-2.71-.11-3.98.46-1.3.58-2.52,1.41-3.68,2.3-1.17.88-2.28,1.85-3.36,2.85-2.16,2-4.2,4.15-6.15,6.35l-1.22,1.38.63-1.72c.62-1.71,1.28-3.39,1.97-5.06.71-1.67,1.35-3.34,2.2-4.98.94-1.6,2.3-2.88,3.78-3.94,1.47-1.05,3.11-1.93,4.76-2.56Z"/>
      </g>
      <polygon class="cls-5" points="30.56 220.85 39.45 230.54 35 294.63 44.03 314.96 37.29 291.96 50.56 225.45 30.56 220.85"/>
    </g>
  </g>
</svg>