<?xml version="1.0" encoding="UTF-8"?>
<svg id="Capa_2" data-name="Capa 2" xmlns="http://www.w3.org/2000/svg" viewBox="0 0 241.9 323.73">
  <defs>
    <style>
      .cls-1 {
        fill: #eee099;
      }

      .cls-1, .cls-2, .cls-3, .cls-4, .cls-5 {
        stroke-width: 0px;
      }

      .cls-2 {
        fill: #3a0707;
      }

      .cls-3 {
        fill: #e7da8c;
      }

      .cls-4 {
        fill: #30020f;
      }

      .cls-5 {
        fill: #440a19;
      }

      .cls-6 {
        fill: none;
        stroke: #3a0707;
        stroke-miterlimit: 10;
      }
    </style>
  </defs>
  <g id="mono">
    <g>
      <path class="cls-3" d="M31.66,10.1c5.11-4.32,9.86-8.32,15.21-8.14,5.86.2,10.74,4.91,11.57,7.29,1.71,4.93,4.29,15.86,6.64,18.21s8.36,13.5,11.36,17.36c3,3.86,2.37,6.86,1.18,9-1.18,2.14-5.47,7.29-5.47,7.29,0,0,1.07,4.07-1.71,5.14s-15.31,9.64-15.31,9.64c-.14,1.59-.53,2.87-.98,3.86-5.06,11.33-29.41,15.7-36.49,7.75-7.57-8.5,12.23-22.51,8.04-48.86-.92-5.78-3.9-17.81,2.25-25.07,1.01-1.19,2.25-2.24,3.7-3.47Z"/>
      <g>
        <g>
          <path class="cls-3" d="M131.01,274.24l-8.66,8.5s6.07,39.4,17.28,40.54c11.21,1.14,40.78-5.56,40.78-5.56,0,0,3.9-4.09,3.74-7.36s3.09-.65,3.09-.65c0,0,1.95-9.32-3.9-14.06-5.85-4.74-8.45-2.13-14.3-4.41-5.85-2.29-6.34-4.58-6.34-4.58l-1.46,4.9-13.76-23-9.5,1.02-6.96,4.65Z"/>
          <path class="cls-2" d="M131.01,274.24l-8.64,8.53v-.03c1.22,7.14,2.78,14.24,4.94,21.15,1.09,3.45,2.3,6.87,3.87,10.12.78,1.62,1.64,3.22,2.69,4.67,1.04,1.45,2.26,2.81,3.78,3.66.39.17.78.37,1.2.47.42.08.82.19,1.29.19.9.03,1.79.11,2.69.07,1.8-.01,3.6-.15,5.4-.31,3.6-.32,7.18-.86,10.75-1.41,7.15-1.13,14.26-2.54,21.32-4.11l-.25.14c1.38-1.55,2.68-3.32,3.34-5.25.14-.48.27-.97.26-1.45.04-.46-.09-1.16.31-1.83.23-.36.68-.59,1.07-.59.37,0,.7.09.98.2.58.23,1.04.54,1.51.9l-.75.27c.52-3.04.43-6.33-.64-9.24-.54-1.45-1.38-2.78-2.48-3.85-1.11-1.06-2.43-1.99-3.83-2.65-2.79-1.44-6.18-.82-9.34-1.82-1.57-.47-3.06-1.12-4.48-1.92-.71-.4-1.39-.86-2.02-1.4-.62-.56-1.22-1.12-1.53-2.03l.48.02-1.5,4.89-.14.46-.24-.41c-4.53-7.7-9.04-15.41-13.62-23.08l.05.03-9.5.99h.01s-6.98,4.62-6.98,4.62ZM131.01,274.24l6.95-4.67h0s0,0,0,0l9.5-1.05h.03s.02.03.02.03c4.59,7.66,9.25,15.28,13.89,22.91l-.38.05,1.43-4.92.21-.73.27.74c.23.62.81,1.24,1.39,1.72.6.5,1.26.93,1.95,1.31,1.38.75,2.87,1.37,4.38,1.8,1.52.43,3.09.55,4.69.65,1.61.1,3.29.37,4.8,1.07,1.51.7,2.87,1.61,4.09,2.75,1.21,1.15,2.12,2.6,2.71,4.15.6,1.55.9,3.19,1,4.83.1,1.64.03,3.27-.26,4.92l-.13.74-.62-.47c-.38-.29-.84-.58-1.27-.75-.22-.09-.43-.12-.6-.13-.16.02-.22.07-.3.16-.07.13-.12.33-.14.56v.78c-.01.61-.16,1.17-.31,1.73-.36,1.09-.9,2.08-1.5,3.02-.61.93-1.28,1.8-2.05,2.63l-.1.11-.15.03c-7.1,1.54-14.22,2.91-21.4,4-3.59.54-7.19,1.01-10.82,1.29-1.81.13-3.63.24-5.46.23-.91.03-1.83-.06-2.74-.11-.45,0-.93-.12-1.39-.22-.46-.12-.89-.34-1.31-.54-1.64-.95-2.87-2.39-3.91-3.89-1.05-1.51-1.9-3.13-2.66-4.78-1.53-3.3-2.7-6.75-3.74-10.23-2.03-6.97-3.59-14.06-4.75-21.22v-.02s.01-.01.01-.01l8.69-8.48Z"/>
        </g>
        <g>
          <path class="cls-5" d="M72.8,124.32l-9-32.07,30.86-18.08h7.71s2.57-14.13,7.71-18.84l5.14-4.71s3.43,10.71,2.57,12.86l-.86,2.14s11.14.43,13.71,1.29l2.57.86s-3.86,7.71-7.29,8.57l-3.43.86s16.29,3.43,20.14,6.86c3.86,3.43,9.86,12,6.43,30-3.43,18-3,28.71-5.14,32.57s-10.29,14.14-10.29,14.14c0,0,25.71,26.57,33.43,45.86,7.71,19.29,11.57,35.57,11.57,35.57l-14.57,7.29s-6.43,9-9.86,16.71l-3.43,7.71-4.71-3.86,1.71,16.29-7.71-12.43-10.29,1.71s12.86-12,4.71-27c-8.14-15-10.71-18.86-10.71-18.86l-14.57-.86-2.57-9.86s3.86-22.71,0-27.43c-3.86-4.71,0-20.14,0-20.14l-28.29-16.29s10.71-7.71,7.71-12.86c-3-5.14-13.29-18-13.29-18Z"/>
          <path class="cls-2" d="M72.8,124.32l-9.1-32.05-.02-.08.07-.04,30.8-18.18.05-.03h.06s7.71-.02,7.71-.02l-.23.19c.44-2.27.98-4.51,1.63-6.73.66-2.21,1.41-4.4,2.37-6.51.97-2.09,2.1-4.18,3.82-5.81l5.08-4.67.32-.29.13.41c.77,2.48,1.49,4.97,2.06,7.5.28,1.27.54,2.54.64,3.87.04.33.02.67,0,1.01-.04.35-.15.74-.27,1.01l-.72,1.8-.26-.4c2.75.11,5.5.27,8.25.49,1.37.12,2.75.25,4.12.47.68.11,1.41.29,2.04.52l1.96.65.34.11-.17.32c-1.17,2.24-2.49,4.4-4.16,6.32-.85.94-1.8,1.87-3.1,2.34-1.24.36-2.43.63-3.65.94v-.63c4.23.93,8.44,1.99,12.58,3.34,2.06.69,4.12,1.42,6.07,2.48.99.49,1.88,1.27,2.63,2.05.78.78,1.45,1.67,2.08,2.56,2.52,3.64,3.76,7.99,4.28,12.32.46,4.36.17,8.75-.54,13.05-.74,4.28-1.51,8.52-2.07,12.82-.59,4.29-1.01,8.59-1.5,12.9-.26,2.16-.51,4.32-1.07,6.47-.28,1.08-.81,2.14-1.41,3.04-.58.93-1.2,1.82-1.83,2.71-2.51,3.55-5.15,6.99-7.83,10.4l-.03-.57c5.44,5.72,10.62,11.66,15.55,17.81,4.93,6.15,9.6,12.54,13.6,19.36l.75,1.28.69,1.31c.46.88.93,1.75,1.38,2.63.8,1.81,1.66,3.62,2.34,5.46,1.44,3.67,2.8,7.37,4.08,11.1,2.54,7.46,4.85,15,6.75,22.67l.09.36-.34.17-14.58,7.27.17-.14c-2.65,3.78-5.15,7.7-7.38,11.75-1.12,2.03-2.12,4.09-3.05,6.22l-2.84,6.36-.22.5-.43-.35-4.71-3.86.67-.36,1.7,16.29.18,1.72-.91-1.47-7.7-12.44.39.18-10.29,1.7-1.15.19.84-.83c1.47-1.45,2.75-3.17,3.85-4.96.56-.89,1.02-1.84,1.48-2.78.39-.98.82-1.94,1.08-2.95,1.29-4.01,1.12-8.39-.23-12.35-.68-1.98-1.68-3.84-2.71-5.72l-3.08-5.6c-2.08-3.71-4.15-7.46-6.4-11.04l.24.14-14.57-.87h-.22s-.05-.22-.05-.22l-2.56-9.86-.02-.06v-.06c.66-3.97,1.15-7.98,1.47-11.99.15-2.01.26-4.02.27-6.03,0-2.01-.07-4.02-.42-5.98-.19-.97-.44-1.94-.92-2.77-.23-.38-.61-.79-.84-1.27-.26-.46-.44-.95-.6-1.44-.59-1.99-.66-4.05-.61-6.08.13-4.07.81-8.07,1.74-12.01l.1.24-28.24-16.37-.15-.09.14-.11c2.54-1.92,4.96-4.09,6.75-6.74.86-1.32,1.59-2.84,1.46-4.43-.05-.8-.44-1.51-.87-2.18-.41-.68-.86-1.35-1.31-2.02-1.8-2.65-3.72-5.23-5.65-7.79-1.93-2.56-3.9-5.09-5.89-7.61ZM72.8,124.32c2,2.5,3.99,5.03,5.94,7.57,1.95,2.55,3.88,5.11,5.7,7.76.45.66.9,1.33,1.32,2.01.44.66.86,1.41.91,2.23.14,1.65-.6,3.21-1.46,4.55-1.8,2.69-4.21,4.88-6.76,6.83v-.2s28.33,16.2,28.33,16.2l.14.08-.04.16c-.9,3.91-1.54,7.91-1.66,11.92-.04,2,.04,4.03.6,5.92.15.46.32.93.56,1.35.22.43.53.77.84,1.25.53.93.79,1.94.99,2.94.36,2.02.44,4.05.44,6.08,0,2.03-.11,4.05-.26,6.07-.31,4.03-.8,8.05-1.44,12.04v-.12s2.58,9.85,2.58,9.85l-.27-.22,14.57.84h.16s.08.14.08.14c2.29,3.63,4.36,7.35,6.45,11.07l3.1,5.6c1.02,1.85,2.06,3.77,2.77,5.82,1.41,4.08,1.59,8.64.27,12.78-.27,1.05-.71,2.04-1.11,3.05-.48.97-.95,1.94-1.52,2.86-1.13,1.85-2.41,3.58-3.96,5.13l-.31-.64,10.28-1.73.25-.04.14.22,7.73,12.42-.73.25-1.73-16.28-.11-1,.78.64,4.72,3.85-.65.15,2.82-6.37c.92-2.13,1.94-4.25,3.07-6.29,2.25-4.09,4.74-8.03,7.41-11.86l.06-.09.1-.05,14.56-7.3-.25.53c-1.9-7.61-4.22-15.13-6.78-22.56-1.28-3.72-2.64-7.4-4.07-11.06-.68-1.85-1.51-3.61-2.3-5.39-.44-.87-.9-1.73-1.35-2.6l-.68-1.3-.74-1.27c-3.95-6.77-8.58-13.14-13.48-19.27-4.9-6.14-10.06-12.09-15.46-17.78l-.26-.27.23-.29c2.67-3.4,5.32-6.83,7.82-10.35.62-.88,1.24-1.77,1.81-2.67.6-.91,1.04-1.8,1.32-2.82.54-2.04.8-4.2,1.06-6.34.5-4.3.93-8.62,1.53-12.92.57-4.3,1.35-8.59,2.1-12.84.71-4.24,1-8.57.56-12.84-.5-4.24-1.7-8.48-4.13-12.01-.61-.87-1.26-1.72-2.01-2.48-.75-.77-1.5-1.46-2.46-1.93-1.86-1.02-3.9-1.75-5.94-2.44-4.1-1.34-8.3-2.41-12.52-3.35l-1.32-.29,1.31-.34c1.2-.31,2.45-.59,3.62-.92,1.08-.38,2.01-1.25,2.82-2.15,1.62-1.85,2.93-4,4.08-6.18l.18.43c-1.32-.41-2.59-.96-3.9-1.16-1.34-.22-2.71-.35-4.07-.48-2.73-.23-5.48-.39-8.22-.51l-.41-.02.15-.38.72-1.8c.14-.32.2-.56.23-.85.01-.3.03-.61,0-.92-.09-1.26-.35-2.52-.62-3.78-.56-2.51-1.27-5-2.04-7.46l.45.12-5.09,4.66c-1.63,1.54-2.76,3.58-3.71,5.64-.95,2.08-1.7,4.24-2.36,6.44-.65,2.19-1.21,4.42-1.65,6.67l-.04.19h-.19s-7.71-.02-7.71-.02l.11-.03-30.91,17.99.05-.12,8.9,32.1Z"/>
        </g>
        <g>
          <path class="cls-5" d="M132.39,233.49s-7.73,25.4-18.87,31.83-33.14,21.86-54.28,6.43c-21.14-15.43-33.14-29.57-33.14-29.57l7.3-32.95,11.56,8.79c4.3,3.27,10.33,2.97,14.28-.7h0s-10-15.43-10-15.43l6.43-5.14s-6-1.71-12-4.71-25.71,16.71-25.71,16.71l-15,33,22.29,27.86s33.43,27.86,49.29,33.86l15.86,6s33-45,37.71-49.29,12.9-9.42,12.9-9.42l-8.6-17.27"/>
          <path class="cls-2" d="M132.39,233.49c-1.77,5.59-3.94,11.06-6.55,16.31-1.32,2.62-2.76,5.19-4.41,7.61-1.66,2.42-3.53,4.73-5.81,6.61-1.14.95-2.45,1.65-3.7,2.4l-3.78,2.25c-2.53,1.49-5.1,2.92-7.73,4.22-5.27,2.58-10.86,4.67-16.73,5.42-2.92.37-5.9.44-8.84.06-2.93-.37-5.81-1.15-8.54-2.3-2.73-1.14-5.28-2.67-7.66-4.42l-3.53-2.63-3.48-2.7c-4.61-3.64-9.08-7.45-13.4-11.43-4.32-3.99-8.51-8.1-12.41-12.52l-.11-.13.04-.17,7.26-32.95.13-.59.48.37,9.65,7.32c.8.59,1.61,1.25,2.41,1.79.81.54,1.68.99,2.61,1.28,1.84.62,3.85.7,5.75.28.95-.22,1.86-.57,2.72-1.03.42-.24.84-.49,1.23-.78.2-.13.39-.29.57-.45l.28-.24.07-.06.03-.03h0c.02-.13-.13,1.02-.07.53v-.02s-.12-.16-.12-.16l-3.3-5.08-6.6-10.15-.22-.34.32-.26,6.42-5.15.16.8c-3.58-1.08-7.06-2.39-10.45-3.95-.85-.36-1.7-.92-2.43-1-.8-.1-1.68.08-2.52.34-1.69.57-3.3,1.46-4.85,2.42-3.1,1.96-5.99,4.26-8.82,6.63-2.81,2.38-5.55,4.88-8.18,7.46l.1-.14-15.04,32.98-.06-.45,22.25,27.89-.05-.06c4.93,4.08,9.95,8.06,15.04,11.95,5.09,3.88,10.25,7.68,15.54,11.28,5.3,3.56,10.69,7.1,16.49,9.73l2.19.94,2.25.85,4.49,1.71,8.99,3.41-.34.1c7.73-10.47,15.47-20.93,23.38-31.26,3.97-5.15,7.91-10.33,12.1-15.33,1.05-1.23,2.13-2.5,3.4-3.52,1.25-1.05,2.54-2.04,3.85-3.01,2.63-1.92,5.33-3.75,8.08-5.48l-.03.09-8.54-17.3,8.67,17.23.03.06-.06.04c-2.74,1.75-5.42,3.6-8.03,5.53-1.3.97-2.58,1.97-3.81,3.03-1.27,1.03-2.3,2.27-3.35,3.51-4.14,5.01-8.04,10.22-11.97,15.4-7.82,10.4-15.58,20.84-23.27,31.34l-.13.18-.21-.08-9-3.39-4.5-1.7-2.25-.85-2.23-.95c-5.89-2.65-11.28-6.18-16.62-9.74-5.32-3.6-10.49-7.39-15.6-11.27-5.11-3.88-10.14-7.86-15.1-11.93l-.03-.02-.03-.03-22.32-27.83-.17-.21.11-.24,14.96-33.02.04-.08.06-.06c2.65-2.62,5.39-5.12,8.22-7.53,2.84-2.4,5.77-4.7,8.94-6.7,1.59-.98,3.25-1.89,5.08-2.51.92-.28,1.9-.5,2.94-.37l.39.06.38.14c.27.09.48.19.68.29l1.24.6c3.33,1.55,6.8,2.86,10.31,3.92l.85.26-.68.55-6.44,5.13.1-.6,6.57,10.17,3.29,5.09.1.16v.02c.08-.48-.06.67-.05.55h0s-.04.04-.04.04l-.07.06-.3.25c-.2.17-.4.34-.62.49-.42.32-.87.59-1.33.84-.93.49-1.91.86-2.93,1.1-2.05.45-4.21.36-6.2-.32-1-.32-1.94-.81-2.8-1.39-.87-.59-1.62-1.22-2.44-1.83l-9.63-7.34.61-.22-7.34,32.94-.07-.3c3.85,4.39,8.03,8.51,12.32,12.49,4.3,3.98,8.75,7.79,13.34,11.43l3.47,2.7,3.52,2.63c2.35,1.73,4.85,3.24,7.53,4.37,2.67,1.14,5.5,1.91,8.39,2.29,2.88.38,5.82.32,8.71-.04,5.79-.72,11.36-2.74,16.62-5.27,2.63-1.28,5.2-2.68,7.74-4.15l3.79-2.22c1.26-.75,2.56-1.43,3.69-2.35,2.27-1.84,4.15-4.12,5.82-6.51,1.67-2.41,3.12-4.96,4.46-7.56,2.65-5.23,4.85-10.68,6.67-16.26Z"/>
        </g>
        <g>
          <path class="cls-3" d="M215.11,223.37c3.12.25,5.23,2.89,5.29,3.41,0,0,0,.01,0,.02.25.29,8.68-6.58,12.53-7.34,3.9-.78,8.8,7.47,8.74,10.01l-.07,2.54-14.74,5.46,2.57-3.47s-2.69,5.86-8.07,8.52c-5.38,2.66-17.14,8.03-17.14,8.03l-6.04,2.24s-6.92,4.41-9.16-1.64-3.82-9.4-3.82-9.4h0s-.11-7.52,3.04-11.42c4.65-5.76,14.39-1.1,22.5-5.79.54-.31,2.23-1.34,4.37-1.16Z"/>
          <path class="cls-2" d="M215.11,223.37c1.59.12,3.07.89,4.23,1.97.29.27.56.56.79.88.11.16.23.33.28.53,0,.06.14-.02.21-.06l.25-.15c.66-.43,1.3-.89,1.95-1.35,2.59-1.81,5.17-3.67,8.02-5.07.72-.32,1.45-.67,2.26-.77.82-.15,1.62.17,2.32.53,1.4.8,2.52,1.99,3.49,3.24.96,1.27,1.78,2.65,2.4,4.13.29.74.58,1.52.56,2.37l-.04,2.37v.16s-.15.06-.15.06l-14.69,5.6-1.21.46.77-1.05,2.54-3.49.73.43c-1.18,2.38-2.75,4.49-4.7,6.29-.97.89-2.05,1.67-3.23,2.3-1.16.6-2.33,1.11-3.49,1.68-4.65,2.22-9.33,4.36-13.99,6.53h-.01s-.02.01-.02.01l-6.05,2.22.08-.04c-.8.48-1.61.85-2.48,1.14-.86.29-1.78.47-2.72.45-.93-.03-1.91-.28-2.69-.85-.75-.6-1.34-1.38-1.66-2.25l-1.87-4.93c-.64-1.63-1.3-3.26-2.01-4.85v-.24s-.02.02-.02.04v-.07s0-.16,0-.16v-.32s.04-.64.04-.64c.03-.42.06-.85.1-1.27.09-.84.21-1.68.37-2.52.33-1.66.82-3.31,1.6-4.83.79-1.51,2.02-2.82,3.56-3.58,1.53-.77,3.24-1.03,4.91-1.18,3.36-.27,6.75-.07,10.05-.74,1.64-.35,3.28-.8,4.74-1.64.75-.38,1.47-.82,2.29-1.06.8-.25,1.65-.36,2.49-.29ZM215.11,223.37c-.84-.06-1.69.05-2.49.31-.81.24-1.53.69-2.28,1.07-1.46.85-3.11,1.32-4.75,1.68-3.31.69-6.72.52-10.06.81-1.66.16-3.34.47-4.82,1.24-1.47.77-2.63,2.04-3.37,3.52-.73,1.49-1.18,3.11-1.47,4.75-.14.82-.25,1.65-.32,2.48-.03.42-.06.83-.08,1.25l-.02.62v.31s0,.16,0,.16v.09c0,.07-.01.14-.03.2v-.24c.76,1.6,1.45,3.21,2.12,4.84l1.96,4.87c.31.78.84,1.42,1.45,1.91.65.45,1.45.65,2.26.66,1.63,0,3.3-.65,4.72-1.49l.05-.03h.04s6.03-2.28,6.03-2.28h-.03c4.65-2.18,9.29-4.4,13.96-6.54,1.16-.55,2.35-1.07,3.48-1.64,1.1-.57,2.13-1.3,3.06-2.14,1.85-1.68,3.41-3.75,4.53-5.97l.73.43-2.6,3.44-.44-.59,14.79-5.32-.15.22.08-2.37c.03-.75-.22-1.49-.49-2.22-.58-1.45-1.37-2.82-2.28-4.09-.93-1.25-2.01-2.44-3.35-3.24-.67-.35-1.43-.68-2.2-.55-.77.08-1.5.42-2.22.73-2.84,1.37-5.44,3.21-8.04,5-.65.45-1.29.91-1.96,1.33l-.26.15s-.09.05-.14.06c-.02.02-.15.04-.15-.05-.05-.18-.16-.35-.27-.51-.23-.32-.49-.62-.78-.88-1.14-1.08-2.62-1.86-4.2-1.99Z"/>
        </g>
        <g>
          <path class="cls-3" d="M239.42,233.49s1.44-.74,1.63-1.94-.59-1.92.36-2.9-.96-1.78-.9-2.32-2.3-4.16-2.18-4.84-.14-2.08-.94-2.54-7.39-1.28-7.39-1.28l.98,2.65s-.51-.69-3.05-3.14-4.77-3.39-4.77-3.39l-2.01,1.37c-2.01,1.37-5.82,10.08-5.82,10.08"/>
          <path class="cls-2" d="M239.42,233.49c.83-.52,1.61-1.36,1.53-2.34,0-.48-.2-.95-.2-1.51,0-.28.1-.57.25-.81.07-.12.16-.23.25-.33.06-.08.13-.16.15-.25.13-.31-.21-.68-.57-1.01-.18-.19-.38-.31-.56-.65-.05-.05-.05-.3-.06-.3,0,0,0-.03-.03-.09-.03-.09-.09-.21-.13-.31-.43-.87-.97-1.74-1.44-2.64-.24-.46-.49-.88-.65-1.48-.02-.06-.03-.22-.02-.32v-.16c.02-.1.02-.21,0-.32-.02-.22-.06-.44-.12-.65-.12-.42-.35-.82-.63-.98-.28-.13-.85-.24-1.31-.33-1.95-.36-3.96-.61-5.94-.86l.52-.65c.34.88.67,1.76.99,2.65l.96,2.7-1.82-2.24c-.48-.59-1.11-1.23-1.69-1.83-.6-.6-1.21-1.22-1.82-1.78-.62-.56-1.27-1.09-1.95-1.57-.68-.48-1.41-.92-2.13-1.26l.39-.04-1.48.97c-.53.33-.91.61-1.28,1.05-.73.87-1.35,1.88-1.95,2.88-1.2,2.01-2.28,4.11-3.35,6.21.42-1.1.88-2.19,1.37-3.26.49-1.08.98-2.15,1.53-3.2.56-1.04,1.14-2.08,1.88-3.05.36-.49.92-.94,1.38-1.25l1.44-1.03.18-.13.21.09c.84.36,1.57.82,2.31,1.31.72.49,1.41,1.03,2.07,1.61.66.59,1.26,1.18,1.88,1.79.62.62,1.21,1.18,1.81,1.92l-.86.46c-.34-.88-.66-1.77-.98-2.65l-.28-.76.79.11c2,.28,3.99.56,5.99.95.25.05.5.1.76.17.25.07.51.12.84.3.58.38.83.96.99,1.49.08.27.12.55.13.83,0,.14,0,.29-.01.44l-.03.21s-.01-.01,0,.05c.08.37.31.86.52,1.3.43.9.92,1.77,1.34,2.72.05.13.1.24.14.39.02.06.04.16.05.28.02.12,0,0,.01.07.04.11.24.32.41.49.18.18.37.38.52.63.16.24.24.63.1.94-.06.16-.17.27-.26.38-.08.08-.16.16-.22.26-.13.18-.21.38-.23.6-.04.45.12.96.1,1.49,0,.53-.22,1.06-.57,1.44-.34.38-.76.68-1.21.91Z"/>
        </g>
        <g>
          <path class="cls-5" d="M61.13,144.64s-33.97-32.53-35.69-32.75S.37,78.68.37,78.68l15-34.07h-5.36l9.86-11.57c-.3-5.36-.08-9.83.21-13.07.77-8.57,2.3-11.7,2.79-12.64,1.57-3.04,3.54-5.15,4.93-6.43,1.47,4.96,2.82,10.47,3.86,16.5.55,3.2.97,6.27,1.29,9.21,0,0,7.29-3.21,9.43-2.57,2.14.64-7.93,22.71-7.93,22.71l11.57,13.71s-9.95-6-15.26-2.79c-5.31,3.21-6.17,11.14-2.31,16.29,3.86,5.14,14.36,10.87,15.43,11.65s10.29-5.86,10.29-5.86c0,0-6,3.14-5.79,12.5.21,9.36,14.14,29.07,14.14,29.07.14,1,.29,2,.43,3"/>
          <path class="cls-2" d="M61.13,144.64c-5.46-5.16-10.93-10.3-16.44-15.41-5.51-5.1-11.01-10.23-16.7-15.11-.72-.6-1.44-1.21-2.18-1.73-.09-.06-.2-.14-.27-.17-.08-.03-.09-.06-.3-.14-.18-.08-.26-.16-.35-.25-.1-.08-.2-.16-.27-.25-.34-.34-.66-.69-.97-1.05-1.23-1.43-2.39-2.91-3.55-4.39-2.3-2.97-4.55-5.99-6.78-9.01-4.46-6.05-8.85-12.14-13.21-18.26l-.11-.15.07-.17,14.94-34.1.36.55h-5.36s-.87.01-.87.01l.56-.66,9.84-11.59-.1.3c-.32-5.72-.14-11.48.65-17.17.43-2.84.94-5.7,2.16-8.4,1.28-2.63,3.07-4.98,5.21-6.96l.57-.53.22.75c1.26,4.21,2.32,8.47,3.17,12.78.44,2.15.8,4.32,1.07,6.5l.9,6.52-.65-.38c1.33-.57,2.66-1.09,4.03-1.56,1.37-.45,2.74-.91,4.24-1.08.19-.03.38-.04.58-.03.2,0,.39,0,.61.04.12.03.18.02.35.08.22.08.35.27.42.4.13.29.12.5.14.71-.02.81-.2,1.51-.37,2.22-.37,1.41-.84,2.76-1.32,4.11-1.98,5.38-4.26,10.62-6.61,15.83l-.06-.43,11.55,13.73,1.34,1.59-1.81-1.03c-2.34-1.34-4.86-2.47-7.48-3.15-1.31-.32-2.64-.59-3.97-.54-1.33.03-2.62.35-3.72,1.07-2.25,1.43-3.67,3.94-4.09,6.56-.44,2.63,0,5.43,1.32,7.76,1.31,2.34,3.44,4.15,5.56,5.85,2.15,1.69,4.43,3.21,6.75,4.67l3.51,2.16.23.15.11.07s.02,0,.02,0c.08,0,.23,0,.38-.04.3-.08.61-.2.92-.35.61-.28,1.21-.61,1.8-.95,2.36-1.38,4.63-2.93,6.87-4.51l.27.43c-1.61.97-2.93,2.48-3.87,4.15-.95,1.68-1.48,3.58-1.71,5.5-.58,3.89.72,7.72,2.21,11.31,1.53,3.6,3.38,7.06,5.34,10.45,1.97,3.39,4.06,6.7,6.28,9.94h0s0,0,0,0l.41,3-.44-3h0c-2.25-3.2-4.38-6.5-6.39-9.87-2-3.37-3.89-6.82-5.46-10.42-.38-.9-.74-1.82-1.09-2.74-.28-.94-.67-1.85-.86-2.83-.55-1.9-.61-3.94-.4-5.89.39-3.91,2.24-7.88,5.74-10.05l.27.43c-2.24,1.6-4.51,3.16-6.89,4.56-.6.35-1.2.69-1.84.98-.32.15-.65.28-1.01.38-.18.05-.38.09-.64.05-.07-.02-.15-.06-.22-.1l-.1-.07-.21-.13-3.52-2.14c-2.34-1.46-4.64-2.98-6.82-4.68-2.15-1.71-4.33-3.53-5.73-6.01-1.4-2.46-1.86-5.4-1.41-8.18.43-2.77,1.94-5.47,4.36-7.03,1.21-.8,2.67-1.16,4.08-1.2,1.42-.06,2.82.21,4.17.54,2.71.7,5.25,1.83,7.68,3.21l-.48.56-11.6-13.69-.16-.19.1-.23c2.32-5.2,4.59-10.45,6.53-15.79.47-1.34.93-2.68,1.28-4.04.17-.67.33-1.37.34-1.99,0-.14-.02-.29-.05-.33-.01-.02,0,.01.05.03l-.17-.03c-.13-.03-.29-.03-.45-.03-.16,0-.32,0-.49.03-1.34.15-2.71.6-4.04,1.05-1.33.46-2.66.99-3.95,1.55l-.56.24-.09-.62-.92-6.48c-.28-2.16-.64-4.31-1.09-6.45-.87-4.27-1.92-8.51-3.14-12.7l.8.22c-2.06,1.89-3.79,4.15-5.02,6.65-1.15,2.51-1.68,5.34-2.11,8.12-.8,5.61-1,11.32-.7,16.99v.17s-.1.13-.1.13l-9.88,11.55-.3-.66h5.36s.6.01.6.01l-.24.55L.67,78.81l-.03-.32c4.34,6.13,8.71,12.24,13.14,18.3,2.22,3.03,4.45,6.05,6.74,9.02,1.15,1.48,2.3,2.96,3.51,4.38.31.35.62.7.94,1.02.08.09.16.15.24.22.08.07.18.16.21.16,0,.03.2.09.34.16.14.07.21.14.32.21.79.56,1.49,1.17,2.21,1.79,5.66,4.96,11.09,10.14,16.56,15.3,5.45,5.17,10.87,10.37,16.28,15.58Z"/>
        </g>
        <g>
          <path class="cls-5" d="M124.08,155.51s.51,4.09,4.13,3,5.38-6.52,5.38-6.52l18.35,21.03-1.99.74s25.45,19.82,28.04,21.38,4.36.9,4.36.9l-2.91,2.33s24.41,18.36,27.76,20.64,7.9,4.36,7.9,4.36c0,0-5.78,3.4-9.1,4.63l-3.32,1.23,2.37,8.43s-6.49.14-8.77-1.28l-2.28-1.42s-2.27,4.36-5.54,5.57l-3.27,1.21s-13.3-36.56-17.58-42.02-19.18-21.22-25.19-23.19-8.05-2.12-14.75-11-3.6-10.03-3.6-10.03Z"/>
          <path class="cls-2" d="M124.08,155.51c.2,1.18.78,2.43,1.92,2.94,1.15.47,2.44.04,3.45-.57,1.01-.68,1.82-1.62,2.47-2.64.65-1.03,1.19-2.13,1.58-3.28l.06-.16.11.13,18.47,20.92.25.29-.36.13-1.99.74.07-.46,15.78,12.15,7.93,6.01c1.33.99,2.66,1.99,4.01,2.91.67.45,1.39.8,2.14,1.01.74.21,1.59.26,2.24.07l1.74-.5-1.39,1.12-2.9,2.34v-.58s17.52,12.97,17.52,12.97l8.76,6.48c1.44,1.12,2.95,2.08,4.53,2.96,1.57.88,3.19,1.71,4.82,2.47l.82.38-.78.45c-1.99,1.16-4,2.27-6.07,3.3-1.04.51-2.09,1.01-3.19,1.42l-3.22,1.2.31-.6,2.35,8.43.17.6h-.62c-1.97.01-3.92-.07-5.88-.38-.98-.17-1.96-.37-2.92-.87-.88-.51-1.66-1.02-2.5-1.54l.64-.17c-.48.88-1.03,1.68-1.64,2.46-.62.77-1.3,1.49-2.08,2.11-.39.31-.81.59-1.26.83-.45.24-.94.42-1.38.58l-2.69.99-.4.15-.15-.4c-3.15-8.63-6.39-17.24-9.84-25.76-1.74-4.25-3.5-8.5-5.52-12.61-.25-.52-.53-1.01-.8-1.51l-.41-.75-.46-.7c-.29-.48-.64-.93-1.01-1.37-.35-.45-.73-.88-1.1-1.32-1.49-1.74-3.03-3.45-4.6-5.12-3.15-3.34-6.39-6.61-9.81-9.66-3.46-2.97-6.92-6.17-11.48-7.21-1.09-.37-2.18-.78-3.21-1.32-1.03-.54-1.99-1.21-2.86-1.97-1.74-1.53-3.23-3.31-4.65-5.11-1.41-1.82-2.79-3.67-3.95-5.66-.58-.99-1.11-2.03-1.45-3.13-.17-.55-.3-1.12-.29-1.7,0-.56.18-1.21.72-1.48ZM124.08,155.51c-.53.28-.69.92-.69,1.48,0,.57.13,1.14.31,1.68.36,1.09.9,2.11,1.49,3.09,1.19,1.97,2.59,3.79,4.02,5.59,1.44,1.78,2.95,3.53,4.68,5.02,1.73,1.51,3.82,2.47,6.01,3.15l1.64.52c.55.17,1.1.34,1.64.59,1.09.45,2.06,1.09,3.02,1.74,1.9,1.32,3.69,2.79,5.41,4.32,3.45,3.05,6.72,6.31,9.89,9.65,1.58,1.67,3.13,3.38,4.64,5.12.37.44.75.87,1.12,1.32.37.44.73.89,1.04,1.4l.49.74.42.76c.27.51.57,1.01.82,1.53,2.05,4.14,3.84,8.38,5.6,12.63,3.49,8.52,6.77,17.11,9.97,25.74l-.54-.25,2.69-1c.92-.31,1.67-.7,2.39-1.29,1.42-1.15,2.58-2.7,3.47-4.3l.23-.42.4.24c.82.5,1.66,1.04,2.46,1.5.76.4,1.71.6,2.63.75,1.87.29,3.81.37,5.71.35l-.45.61-2.39-8.42-.13-.44.43-.16,3.22-1.19c1.05-.39,2.08-.87,3.1-1.36,2.04-1,4.05-2.1,6.02-3.24l.04.83c-1.66-.78-3.28-1.62-4.88-2.52-1.6-.89-3.16-1.9-4.58-3.02l-8.74-6.53-17.49-13.06-.38-.29.37-.3,2.91-2.33.35.62c-1.87.47-3.6-.25-5.01-1.17-1.39-.96-2.7-1.96-4.03-2.96l-7.91-6.05-15.72-12.22-.38-.3.45-.17,1.99-.73-.11.42-18.23-21.13.17-.03c-.41,1.16-.97,2.27-1.64,3.3-.67,1.02-1.51,1.97-2.54,2.64-1.04.61-2.35,1.03-3.52.54-1.15-.54-1.71-1.81-1.9-2.98Z"/>
        </g>
        <g>
          <path class="cls-1" d="M148.43,117.64s8.58-4.68,12.01-1.25,2.79,16.5,0,22.71-6.84,10.33-11.14,7.29l-4.31-3.04,3.44-25.71Z"/>
          <path class="cls-2" d="M148.43,117.64c2.07-1.15,4.3-2.06,6.66-2.53,1.18-.2,2.42-.28,3.62.03.31.05.59.21.87.33.3.11.54.33.79.52.27.17.45.44.65.68.22.24.37.51.51.78.33.53.5,1.12.72,1.69.14.59.35,1.17.43,1.76.12.59.22,1.19.28,1.78.08.6.12,1.2.16,1.79.14,2.4,0,4.8-.3,7.17-.32,2.37-.81,4.74-1.7,7.01-.44,1.14-.98,2.2-1.57,3.26-.59,1.05-1.26,2.07-2.07,3-.8.92-1.73,1.78-2.88,2.36-1.13.58-2.55.77-3.8.37-.3-.11-.6-.24-.9-.36l-.81-.49-1.46-1.03-2.9-2.06-.21-.15.04-.26c.59-4.32,1.26-8.61,1.89-12.9.64-4.28,1.31-8.54,1.98-12.75ZM148.43,117.64l-1.46,12.96c-.52,4.28-1,8.56-1.55,12.81l-.18-.41,2.92,2.04,1.46,1.01.71.42c.25.1.5.21.75.3,1.03.31,2.13.16,3.1-.34.97-.5,1.82-1.28,2.56-2.14,1.47-1.75,2.62-3.83,3.51-5.97.86-2.14,1.37-4.46,1.7-6.77.33-2.32.46-4.68.4-7.02-.02-.59-.04-1.17-.11-1.75-.04-.58-.12-1.16-.22-1.74-.07-.58-.25-1.13-.37-1.7-.2-.54-.34-1.11-.63-1.59-.49-1.02-1.34-1.81-2.44-2.11-1.08-.34-2.27-.32-3.43-.17-2.32.35-4.57,1.17-6.71,2.18Z"/>
        </g>
        <g>
          <path class="cls-1" d="M72.8,124.32s-7.5-2.79-9.86,0-4.5,9.21-3.43,13.93,2.38,12.24,7.5,13.74,11.36,3.19,11.36,3.19c0,0,11.48-7.76,6.77-14.37s-12.34-16.48-12.34-16.48Z"/>
          <path class="cls-2" d="M72.8,124.32c-2.11-.65-4.31-1.15-6.51-1.08-1.08.05-2.21.29-2.95,1.01-.73.75-1.27,1.74-1.75,2.71-1.82,3.96-2.65,8.51-1.32,12.72.49,2.16,1.02,4.3,1.83,6.32.42,1,.91,1.97,1.51,2.84.62.86,1.37,1.61,2.26,2.13.44.28.92.43,1.42.61l1.6.44,3.2.89,6.4,1.82-.39.06c2.52-1.8,4.91-3.98,6.51-6.62.77-1.32,1.31-2.8,1.24-4.29-.03-.74-.23-1.47-.58-2.13-.33-.66-.84-1.29-1.3-1.93l-5.6-7.7-5.58-7.79ZM72.8,124.32l5.87,7.5,5.85,7.59c.48.64,1,1.24,1.41,1.99.41.74.66,1.57.72,2.42.13,1.72-.47,3.36-1.29,4.78-.82,1.43-1.89,2.67-3.02,3.83-1.15,1.15-2.37,2.19-3.71,3.14l-.17.12-.21-.06-6.42-1.78-3.21-.91-1.6-.46c-.54-.19-1.13-.38-1.63-.71-1.03-.61-1.87-1.47-2.53-2.41-.65-.96-1.16-1.99-1.59-3.04-.84-2.11-1.35-4.3-1.83-6.47l-.34-1.63-.14-.85-.08-.86c-.06-1.14.02-2.28.18-3.39.33-2.23,1.04-4.4,2.05-6.41.53-1,1.08-1.98,1.94-2.79.91-.8,2.13-.98,3.24-.99,2.26.02,4.44.61,6.51,1.38Z"/>
        </g>
        <g>
          <path class="cls-3" d="M109.6,192.93c8.68,15.96-7.13,34.24,1.86,49.57,1.01,1.72,2.05,2.94,2.6,3.54,0,0-17.36,10.93-24.75,3.21s-14.79-23.14-14.79-23.14l-1.76-8.04-13.52-8.36s-4.36-12.86,0-19.61c4.36-6.75,8.21-9.64,8.21-9.64,0,0,16.39-3.86,26.04,0,3.26,1.31,11.63,6.71,11.63,6.71h0c2.44,2.3,3.78,4.45,4.49,5.76Z"/>
          <path class="cls-2" d="M109.6,192.93c2.25,4.05,2.95,8.78,2.67,13.36-.25,4.61-1.29,9.11-2.18,13.62-.87,4.5-1.64,9.09-1.24,13.66.4,4.55,2.28,8.95,5.39,12.29l.22.23-.27.16c-3.89,2.35-8.04,4.3-12.47,5.44-2.21.54-4.53.87-6.85.6-1.15-.14-2.31-.42-3.38-.94-1.06-.51-2.03-1.28-2.8-2.14-3.11-3.36-5.66-7.14-8.05-10.99-2.37-3.87-4.57-7.83-6.57-11.91l-.02-.05v-.06s-1.75-8.04-1.75-8.04l.21.3-13.5-8.39-.14-.08-.04-.14c-.84-2.66-1.39-5.36-1.69-8.12-.29-2.74-.31-5.56.38-8.28.13-.69.43-1.33.66-1.99.31-.62.64-1.27,1.02-1.84.76-1.15,1.57-2.26,2.41-3.35,1.7-2.16,3.54-4.23,5.71-5.97l.03-.03h.04c3.26-.7,6.55-1.16,9.87-1.42,3.31-.25,6.65-.28,9.95.08,3.3.33,6.56,1.32,9.41,3.05,2.89,1.63,5.71,3.38,8.49,5.18h0s0,0,0,0c1.78,1.68,3.32,3.62,4.48,5.77ZM109.6,192.93c-1.17-2.15-2.73-4.07-4.51-5.74h0c-2.8-1.78-5.62-3.52-8.52-5.13-2.85-1.71-6.08-2.67-9.38-2.98-3.29-.34-6.62-.25-9.91.04-3.29.3-6.58.82-9.79,1.54l.08-.04c-2.08,1.72-3.89,3.8-5.53,5.96-.82,1.09-1.61,2.2-2.34,3.35-.37.57-.66,1.16-.95,1.76-.21.63-.49,1.24-.6,1.91-.63,2.61-.58,5.36-.25,8.04.32,2.69.94,5.36,1.75,7.93l-.18-.23,13.54,8.32.17.1.04.2,1.78,8.03-.04-.11c1.99,4.02,4.14,8,6.48,11.84,2.35,3.83,4.86,7.6,7.88,10.89.74.82,1.57,1.49,2.54,1.97.96.48,2.03.76,3.11.9,2.17.29,4.42,0,6.58-.49,4.34-1.05,8.5-2.92,12.36-5.19l-.05.4c-3.13-3.46-4.99-7.99-5.33-12.61-.35-4.64.5-9.22,1.42-13.72.91-4.5,1.98-9,2.25-13.6.3-4.57-.37-9.3-2.6-13.36Z"/>
        </g>
        <g>
          <path class="cls-3" d="M109.66,99.03s-9.64-13.29-13.5-12.64-8.57,4.07-8.57,4.07l1.29,1.78s-4.29,2.07-6.64,5.07-8.57,13.5-.86,28.29c0,0,7.71,20.57,18.43,22.71s20.14,3,21.43,3.64,16.29-10.5,18.21-15.21,7.5-24.86,5.36-32.36-4.71-15.21-12.64-17.14c-7.93-1.93-14.79-3.64-18.64,4.07l-3.86,7.71Z"/>
          <path class="cls-2" d="M109.66,99.03c-1.42-1.9-2.92-3.74-4.48-5.53-1.57-1.77-3.19-3.52-5.01-5.02-.91-.74-1.88-1.46-2.97-1.82-.55-.2-1.08-.13-1.66.03-.57.14-1.12.32-1.67.54-2.18.86-4.24,2.08-6.15,3.43l.05-.33,1.3,1.77.17.24-.27.14c-2.76,1.47-5.47,3.33-7.18,5.96-1.74,2.62-2.88,5.63-3.44,8.72-.52,3.11-.44,6.3.19,9.38.62,3.09,1.78,6.05,3.2,8.87v.02s.02.03.02.03c1.22,3.09,2.68,6.12,4.33,9.02,1.66,2.89,3.52,5.69,5.75,8.14,2.21,2.42,4.91,4.58,8.08,5.24,3.29.65,6.6,1.21,9.92,1.72,3.32.52,6.64.93,9.99,1.52.42.08.84.16,1.29.3.1.03.29.12.32.11-.01-.03-.08-.01-.05-.02l.08-.02c.14-.03.32-.1.5-.18.71-.32,1.43-.76,2.13-1.2,1.4-.89,2.76-1.87,4.1-2.87,2.66-2.02,5.25-4.16,7.6-6.51,1.15-1.18,2.32-2.42,3.07-3.8.65-1.45,1.14-3.1,1.63-4.68,1.9-6.42,3.43-12.98,4.17-19.62.18-1.66.25-3.32.21-4.98-.06-1.66-.41-3.23-.91-4.85-.94-3.21-2.02-6.4-3.78-9.21-.88-1.4-1.95-2.68-3.24-3.71-1.28-1.04-2.78-1.78-4.37-2.22-3.23-.84-6.5-1.75-9.83-1.85-1.65-.03-3.35.19-4.83.95-1.49.74-2.69,1.96-3.6,3.35-.87,1.42-1.58,2.98-2.37,4.46l-2.28,4.48ZM109.66,99.03l2.23-4.54c.76-1.5,1.41-3.02,2.28-4.49.9-1.43,2.11-2.7,3.63-3.49,1.52-.81,3.26-1.06,4.95-1.06,1.7,0,3.38.25,5.04.57,1.66.34,3.29.68,4.93,1.13,1.65.45,3.23,1.2,4.58,2.28,1.35,1.06,2.48,2.39,3.4,3.82,1.84,2.88,2.97,6.12,3.95,9.34.52,1.58.92,3.31.99,5.02.06,1.7,0,3.4-.17,5.09-.31,3.37-.9,6.7-1.61,10-.71,3.3-1.54,6.57-2.5,9.8-.51,1.62-.96,3.21-1.68,4.84-.86,1.58-2.04,2.81-3.22,4.04-2.4,2.41-4.99,4.57-7.68,6.63-1.35,1.02-2.72,2.01-4.15,2.93-.72.45-1.44.9-2.26,1.27-.21.09-.42.18-.69.24l-.23.04c-.08.01-.25-.02-.36-.05l-.27-.09c-.35-.11-.76-.19-1.16-.27-3.28-.56-6.63-.99-9.95-1.52-3.33-.52-6.65-1.09-9.95-1.76-1.73-.36-3.33-1.15-4.74-2.13-1.42-.98-2.68-2.16-3.83-3.43-2.29-2.53-4.17-5.38-5.84-8.32-1.66-2.95-3.12-6-4.36-9.16l.02.05c-1.46-2.88-2.61-5.93-3.22-9.11-.62-3.18-.67-6.47-.1-9.66.61-3.18,1.8-6.25,3.63-8.94.89-1.36,2.09-2.53,3.36-3.51,1.29-.98,2.65-1.84,4.1-2.57l-.1.38-1.27-1.79-.14-.2.2-.13c1.98-1.35,4.06-2.54,6.3-3.38.56-.21,1.14-.38,1.72-.52.3-.05.57-.15.91-.14.32-.01.63.06.92.15,1.16.41,2.12,1.16,3.03,1.93,1.81,1.55,3.4,3.33,4.94,5.13,1.53,1.81,2.99,3.68,4.38,5.6Z"/>
        </g>
        <polygon class="cls-2" points="125.35 127.03 129.21 114.34 133.87 115.13 127.44 127.03 125.35 127.03"/>
        <polygon class="cls-2" points="103.7 129.43 99.85 116.73 95.19 117.53 101.62 129.43 103.7 129.43"/>
        <path class="cls-2" d="M78.74,142.46c-.41.86-.83,1.7-1.26,2.55-.43.84-.84,1.7-1.29,2.53l-.13.25-.25-.16-4.15-2.66h-.01s-.02-.03-.02-.03c-2.18-1.79-4.34-3.61-6.49-5.44l-.3-.25.18-.35c1.15-2.24,2.29-4.49,3.48-6.71l.22-.41.39.22c1.78,1.01,3.52,2.09,5.28,3.13l.16.1v.18c-.11,1.24-.24,2.49-.37,3.73l-.02.14h-.13c-.93-.05-1.86-.09-2.79-.15.93-.06,1.86-.11,2.79-.15l-.15.14c.01-1.25.02-2.5.07-3.75l.15.27c-1.81-.96-3.64-1.88-5.43-2.87l.61-.19c-1.1,2.27-2.24,4.51-3.38,6.76l-.12-.6c2.14,1.84,4.27,3.69,6.37,5.58l-.04-.03,3.99,2.89-.38.09c.48-.82,1-1.61,1.5-2.42.5-.81,1-1.61,1.52-2.4Z"/>
        <path class="cls-2" d="M148.94,136.72c.71.47,1.41.96,2.11,1.46.7.49,1.41.97,2.09,1.48l-.39.07,2.3-3.8-.02.04c1.09-2.3,2.21-4.58,3.35-6.86l.12.6c-1.73-1.47-3.46-2.94-5.16-4.45l.64-.06c-1.15,1.44-2.35,2.84-3.53,4.26l.03-.31c.47,1.02.91,2.06,1.35,3.09l-.19-.07c.79-.29,1.58-.57,2.37-.83-.75.38-1.5.75-2.26,1.1l-.12.06-.07-.13c-.55-.98-1.09-1.97-1.61-2.97l-.08-.16.11-.15c1.1-1.48,2.17-2.99,3.29-4.45l.28-.36.36.29c1.76,1.44,3.49,2.9,5.23,4.37l.3.25-.18.35c-1.15,2.27-2.31,4.53-3.51,6.77l-.02.03h0s-2.53,3.66-2.53,3.66l-.17.24-.22-.18c-.66-.54-1.3-1.11-1.95-1.67-.65-.56-1.29-1.12-1.93-1.69Z"/>
        <path class="cls-2" d="M61.87,141.18c-.25-1.07-.46-2.15-.68-3.23l-.28-1.62c-.03-.29-.11-.51-.1-.87.04-.33.1-.57.15-.85.22-1.08.52-2.14.78-3.2l.84-3.18.02-.09.06-.07,2.54-2.71.16-.17.22.09,2.06.86c.68.27,1.39.56,2.07.7.07.01.17.02.2.01-.05.04.21-.08.31-.06.24,0,.42.06.61.11.37.11.72.26,1.07.41.69.31,1.36.64,2.02,1.01-.7-.27-1.4-.53-2.11-.76-.35-.11-.71-.22-1.06-.29-.17-.04-.36-.07-.5-.06-.09,0,0,0-.23.07-.15.03-.24.01-.35.01-.8-.11-1.5-.36-2.22-.59-.72-.23-1.41-.52-2.11-.8l.38-.08-2.48,2.76.08-.15-1.78,6.32c-.07.25-.15.54-.19.76-.03.19.03.51.04.76l.18,1.63c.1,1.09.23,2.18.31,3.28Z"/>
        <polygon class="cls-2" points="149.62 118.8 155.65 116.52 155.71 116.5 155.79 116.52 158.93 117.45 158.83 117.43 159.9 117.39 160.21 117.38 160.27 117.68 161.62 124.89 161.63 124.91 161.63 124.92 161.51 128.32 161.39 124.92 161.39 124.94 159.54 117.85 159.9 118.14 158.83 118.1 158.76 118.1 158.72 118.09 155.65 116.94 155.79 116.94 149.62 118.8"/>
        <path class="cls-2" d="M108.8,189.33c1.64-1.04,3.35-1.95,5.09-2.8,1.76-.82,3.54-1.61,5.48-2.05.49-.11.99-.18,1.52-.17.27.02.55.03.86.21.24.18.44.39.58.6.59.83.99,1.7,1.45,2.56.88,1.73,1.73,3.46,2.58,5.2.85,1.74,1.63,3.52,2.32,5.33.69,1.81,1.35,3.64,1.81,5.56.83,3.83,1.01,7.77.54,11.63h-.1c-.16-3.86-.58-7.69-1.47-11.38-.93-3.68-2.28-7.3-3.6-10.92-.68-1.8-1.44-3.58-2.36-5.27-.47-.83-.98-1.67-1.59-2.36-.15-.18-.32-.3-.46-.4-.12-.06-.34-.06-.55-.06-.43.03-.88.15-1.33.28-3.6,1.1-7.13,2.73-10.73,4.14l-.05-.09Z"/>
        <path class="cls-2" d="M31.64,12.72c1.24-.63,2.51-1.18,3.79-1.69,1.28-.51,2.57-.99,3.89-1.39,1.33-.39,2.68-.7,3.99-1.13,1.31-.42,2.59-.94,3.86-1.48h-.02c1.27-.62,2.62-1.04,4.05-1.14,1.41-.11,2.96.09,4.22.94.31.21.61.43.86.71.13.13.27.26.39.4l.31.46c.44.61.7,1.2,1.05,1.8.33.6.62,1.23.9,1.85.15.31.27.64.38.96.06.17.11.33.15.5.02.09.04.17.05.26,0,.1.06.16-.05.31l-.04-.09c-.17-.52-.6-1.16-.94-1.71-.36-.57-.75-1.13-1.13-1.69-.76-1.16-1.46-2.24-2.52-2.87-1.03-.67-2.31-.92-3.6-.89-1.29.03-2.62.3-3.86.71h-.02c-1.33.38-2.65.77-3.94,1.26-1.29.48-2.54,1.08-3.82,1.61-1.28.51-2.59.94-3.91,1.34-1.32.4-2.65.76-4.01,1.05l-.03-.09Z"/>
        <path class="cls-2" d="M55.08,75.88c.01-2.07.16-4.09.4-6.11.15-1.01.35-2.02.41-3.04.02-.51.02-1.02,0-1.53-.03-.51-.1-1.02-.15-1.52-.16-1.01-.33-2-.51-2.99-.21-.99-.48-1.9-.8-2.88-.6-1.96-1.11-3.94-1.45-5.98l.1-.03c.94,1.85,1.69,3.75,2.37,5.68.68,1.97.95,4.12.85,6.17-.04,1.03-.09,2.06-.07,3.09,0,1.03.1,2.06.09,3.09-.09,2.06-.43,4.1-1.13,6.06l-.1-.02Z"/>
        <path class="cls-2" d="M47.24,54.35c1.17-1.29,2.49-2.39,3.92-3.35.73-.45,1.51-.84,2.22-1.32.71-.48,1.36-1.04,2-1.62,1.26-1.18,2.61-2.24,3.98-3.26,1.4-.98,2.85-1.9,4.42-2.66l.06.08c-1.19,1.27-2.49,2.39-3.85,3.44-1.38,1.01-2.79,1.99-4.29,2.84-.74.44-1.47.9-2.13,1.44-.67.54-1.27,1.16-1.92,1.73-1.33,1.08-2.77,2.02-4.35,2.76l-.06-.08Z"/>
        <path class="cls-2" d="M70.39,66.24c-.17-2.09-.56-4.11-.88-6.16-.13-1.03-.24-2.08-.48-3.1-.25-1.02-.62-2-1.04-2.96-.86-1.9-1.7-3.83-2.45-5.79-.7-1.98-1.34-3.98-1.8-6.05l.09-.04c1.05,1.84,1.9,3.76,2.7,5.7.74,1.96,1.45,3.93,1.97,5.99.26,1.02.51,2.05.83,3.05.31,1,.71,1.99.98,3.02.27,1.03.4,2.09.45,3.15.04,1.06,0,2.14-.29,3.18l-.1-.02Z"/>
        <g>
          <path class="cls-3" d="M195.1,244.57s9-.54,13.5-3.86l4.5-3.32"/>
          <path class="cls-2" d="M195.1,244.52c1.61-.46,3.21-.79,4.83-1.01.81-.08,1.65-.12,2.45-.29.8-.18,1.57-.47,2.31-.83.73-.37,1.45-.75,2.14-1.14.34-.2.69-.4,1-.64.32-.22.65-.45.98-.7,1.35-.95,2.75-1.82,4.27-2.55l.06.08c-1.14,1.23-2.39,2.31-3.69,3.33-1.33,1.02-2.94,1.79-4.57,2.15-.81.2-1.62.38-2.41.63-.79.24-1.57.57-2.38.79-1.62.38-3.3.52-4.98.29v-.1Z"/>
        </g>
        <g>
          <line class="cls-3" x1="199.12" y1="244.57" x2="201.69" y2="250.59"/>
          <path class="cls-2" d="M199.16,244.55c.53.37.84.83.98,1.36.05.28,0,.59.09.85.07.27.24.49.42.71.4.42.66.9.88,1.4.17.52.28,1.07.2,1.7l-.09.04c-.51-.38-.83-.83-1.09-1.32-.21-.5-.37-1.03-.4-1.61-.03-.29-.08-.56-.22-.8-.14-.24-.39-.43-.56-.65-.29-.47-.41-1.01-.31-1.65l.09-.04Z"/>
        </g>
        <g>
          <path class="cls-3" d="M208.6,240.71s2.11,3.11,4.5,3.86,2.01,0,2.01,0"/>
          <path class="cls-2" d="M208.64,240.68c.68.36,1.17.8,1.58,1.35.18.29.31.64.55.89.23.26.54.43.86.55.67.24,1.22.47,1.83.64.31.12.62.23.91.36.15.06.29.12.43.16.13.01.22.14.27-.05l.09-.05c.09.07.13.25.02.38-.09.12-.21.18-.32.22-.21.08-.42.1-.61.11-.39.02-.75-.04-1.1-.12-.72-.21-1.4-.64-1.85-1.22-.24-.28-.47-.55-.75-.76-.28-.21-.64-.34-.93-.56-.54-.47-.93-1.09-1.05-1.86l.08-.06Z"/>
        </g>
        <g>
          <path class="cls-3" d="M215.85,224.07s1,.09,2.39,1.91l1.39,1.82s3.75-2.59,10.61-4.16,7.66-1.52,7.66-1.52"/>
          <path class="cls-2" d="M215.86,224.02c.5,0,.93.25,1.33.49.4.26.75.58,1.08.91.62.7,1.18,1.38,1.72,2.11l-.61-.1c1.43-.89,3.02-1.28,4.48-1.95,1.48-.62,2.94-1.38,4.5-1.84,1.56-.48,3.12-.88,4.7-1.14.79-.13,1.59-.26,2.4-.33.81-.08,1.61-.17,2.44-.1v.1c-1.54.42-3.08.9-4.63,1.3-1.55.43-3.13.7-4.67,1.06-1.54.38-3.13.65-4.62,1.24-1.49.56-2.83,1.54-4.09,2.4l-.35.23-.26-.33c-.56-.7-1.08-1.46-1.58-2.18-.25-.35-.52-.69-.83-1-.3-.31-.63-.6-1.03-.77v-.1Z"/>
        </g>
        <g>
          <path class="cls-3" d="M152.41,323.17l.67-13.61-13.02-10.78,17.29-2.69s-.47-.76,4.94,0l5.41.76"/>
          <path class="cls-2" d="M152.36,323.17c-.06-2.28-.03-4.55.01-6.82.09-2.27.12-4.54.27-6.81l.16.36c-2.14-1.84-4.19-3.78-6.33-5.61-2.15-1.82-4.37-3.56-6.61-5.27l-.55-.42.71-.14c2.86-.56,5.74-1.04,8.62-1.53,2.87-.5,5.76-.93,8.65-1.31l-.33.71c-.2-.4.04-.66.14-.75.11-.09.21-.13.29-.16.16-.06.29-.07.42-.09.25-.03.49-.03.72-.03.46,0,.91.05,1.36.09.89.09,1.77.24,2.64.39,1.74.31,3.47.63,5.2,1v.1c-1.78-.12-3.53-.29-5.29-.47-.88-.08-1.75-.16-2.61-.22-.43-.02-.87-.04-1.28-.02-.21,0-.42.02-.6.05-.09.01-.18.04-.22.06-.03,0-.03.02,0,0,.02-.02.2-.16.05-.46l-.33.71c-2.87.51-5.75.98-8.64,1.38-2.89.41-5.77.82-8.67,1.16l.15-.56c2.1,1.88,4.22,3.74,6.41,5.51,2.19,1.77,4.48,3.42,6.69,5.18l.17.13v.23c-.08,2.27-.27,4.53-.4,6.8-.19,2.26-.37,4.53-.66,6.79h-.1Z"/>
        </g>
        <g>
          <polyline class="cls-3" points="145.28 297.96 167.71 305.11 169.24 315.71"/>
          <path class="cls-2" d="M145.3,297.92c1.94.36,3.84.86,5.72,1.42,1.89.52,3.71,1.28,5.54,2,1.83.71,3.73,1.22,5.64,1.69,1.91.46,3.79,1.03,5.67,1.58l.3.09.05.33c.28,1.76.52,3.53.68,5.32.19,1.78.32,3.56.38,5.36h-.1c-.45-1.73-.83-3.48-1.15-5.23-.35-1.75-.62-3.52-.85-5.29l.36.42c-1.85-.64-3.71-1.26-5.54-1.99-1.83-.72-3.67-1.4-5.58-1.88-1.91-.47-3.83-.9-5.68-1.57-1.86-.63-3.7-1.32-5.49-2.15l.03-.1Z"/>
        </g>
        <path class="cls-4" d="M132.79,189.59c.47.22.73.53.82.92.02.2-.04.45,0,.64.05.19.18.35.34.49.34.28.55.61.72.96.12.38.17.78.04,1.27l-.09.04c-.45-.23-.72-.53-.92-.87-.16-.36-.27-.74-.25-1.18,0-.21-.02-.42-.14-.58-.11-.17-.34-.28-.47-.43-.23-.33-.3-.72-.15-1.22l.09-.04Z"/>
        <path class="cls-4" d="M136.64,187.87c.54.36.87.81,1.03,1.35.06.28.03.59.12.86.08.27.25.49.45.7.41.42.7.89.93,1.39.19.52.32,1.07.26,1.7l-.09.04c-.52-.36-.86-.82-1.13-1.3-.23-.5-.41-1.03-.46-1.61-.04-.29-.1-.56-.25-.8-.14-.24-.41-.42-.58-.64-.3-.47-.44-1.01-.36-1.65l.09-.04Z"/>
        <path class="cls-4" d="M141.86,186.58c.61.31,1.02.76,1.27,1.3.11.28.13.62.27.89.13.27.34.49.58.69.49.39.86.86,1.18,1.36.28.52.51,1.09.56,1.76l-.08.05c-.59-.33-1.01-.76-1.37-1.24-.32-.5-.59-1.03-.75-1.64-.09-.3-.2-.58-.39-.81-.19-.23-.48-.4-.7-.61-.39-.46-.62-1.01-.66-1.7l.08-.05Z"/>
        <g>
          <path class="cls-3" d="M71.97,206.75s3.56-3.83,9.35-6.74,7.71-5.32,11.57-3.15l3.86,2.17"/>
          <path class="cls-2" d="M71.93,206.71c1.44-1.96,3.3-3.55,5.35-4.83,1.04-.61,2.16-1.1,3.23-1.63,1.08-.53,2.11-1.11,3.1-1.78.99-.66,1.98-1.34,3.06-1.92,1.06-.58,2.29-1.12,3.65-1.05.66.06,1.31.22,1.89.5.58.28,1.1.61,1.6.93,1,.65,2,1.32,2.96,2.05l-.05.09c-1.12-.44-2.21-.94-3.29-1.46-1.08-.57-2.09-1-3.16-1.05-1.05-.03-2.12.32-3.18.82-1.05.5-2.12,1.06-3.21,1.55-1.08.52-2.19,1-3.22,1.59-1.03.59-1.98,1.32-2.92,2.04-1.92,1.38-3.83,2.75-5.74,4.21l-.07-.07Z"/>
        </g>
        <g>
          <path class="cls-3" d="M67.44,180.46l-4.5,11.29s.33,1.66,4.21,5.12,6.77,4.52,6.77,4.52"/>
          <path class="cls-2" d="M67.49,180.48c-.22,1-.51,1.98-.83,2.94-.33.96-.66,1.92-1.06,2.85-.39.93-.89,1.83-1.33,2.74-.45.91-.83,1.85-1.16,2.81v-.1c.46,1.04,1.4,1.93,2.23,2.79.86.86,1.79,1.66,2.71,2.45,1.86,1.58,3.75,3.12,5.88,4.39l-.03.09c-1.22-.31-2.37-.86-3.46-1.5-1.09-.63-2.13-1.36-3.08-2.18-.95-.82-1.83-1.72-2.66-2.68-.4-.49-.79-.99-1.12-1.53-.33-.56-.65-1.08-.82-1.76v-.05s0-.05,0-.05c.42-.92.79-1.86,1.09-2.84.31-.97.56-1.96.92-2.9.36-.95.77-1.87,1.19-2.79.43-.92.9-1.82,1.42-2.7l.09.04Z"/>
        </g>
        <g>
          <polyline class="cls-3" points="85.67 196.03 77.62 182.73 86.27 178.75"/>
          <path class="cls-2" d="M85.63,196.05c-.86-.99-1.62-2.05-2.33-3.13-.73-1.07-1.34-2.21-1.89-3.4-.54-1.18-1.2-2.3-1.95-3.36-.75-1.06-1.54-2.1-2.23-3.19l-.27-.42.47-.24c1.42-.72,2.84-1.42,4.32-2.01.74-.28,1.47-.6,2.23-.86.75-.27,1.5-.53,2.28-.74l.04.09c-.67.45-1.35.86-2.04,1.25-.69.41-1.4.76-2.1,1.14-1.41.74-2.87,1.37-4.33,1.98l.2-.66c.64,1.12,1.2,2.3,1.79,3.46.59,1.16,1.28,2.25,2.08,3.28.79,1.03,1.52,2.11,2.13,3.25.63,1.13,1.21,2.29,1.69,3.52l-.09.05Z"/>
        </g>
        <path class="cls-6" d="M104.94,139.1s12.01-5.2,16.29-4.45,9.1,3.32,9.1,3.32c0,0-11.09,0-15.43.32s-9.96.8-9.96.8Z"/>
        <path class="cls-4" d="M10.17,240.61l17.36,25.93s30.76,22.93,35.42,24.64,10.98,6.79,10.98,6.79l6.75,2.86,7.29,6.02,8.79-13.09,5.57-5.36-10.93,6-1.5-4.93-2.36,10.71-12.43-5.57s-7.71-4.36-13.5-8.29-9.86-12.6-9.86-12.6l1.5,8.45-22.5-16.29-20.57-25.29Z"/>
      </g>
    </g>
  </g>
</svg>