<?xml version="1.0" encoding="UTF-8"?>
<svg id="Capa_2" data-name="Capa 2" xmlns="http://www.w3.org/2000/svg" viewBox="0 0 151.91 366.78">
  <defs>
    <style>
      .cls-1 {
        fill: #3a0707;
      }

      .cls-1, .cls-2, .cls-3, .cls-4, .cls-5 {
        stroke-width: 0px;
      }

      .cls-2 {
        fill: #544119;
      }

      .cls-3 {
        fill: #d1ad73;
      }

      .cls-4 {
        fill: #ede64d;
      }

      .cls-5 {
        fill: #573e16;
      }

      .cls-6 {
        fill: none;
        stroke: #3a0707;
        stroke-miterlimit: 10;
      }
    </style>
  </defs>
  <g id="mono">
    <g>
      <g>
        <path class="cls-5" d="M26.43,65.95l10.52-10.06L19.38,12.18,35.88.18s7.71,1.93,11.57,2.57l3.86.64,11.79,47.87-6.43,17.49-30.23-2.8Z"/>
        <path class="cls-2" d="M26.38,65.96l5.13-5.09c1.71-1.73,3.48-3.47,5.24-5.19l-.07.32c-3.03-7.24-5.96-14.53-8.93-21.8l-4.36-10.94-4.27-10.98-.08-.2.17-.12c2.77-1.97,5.55-3.93,8.3-5.92,2.76-1.99,5.52-3.97,8.26-5.99l.06-.04.08.02c2.55.62,5.11,1.22,7.68,1.76,2.56.56,5.16.93,7.76,1.34l.17.03.04.18,6.09,23.89,3,11.95,2.94,11.97.04.15-.05.15-3.23,8.74-3.29,8.72-.12.3-.31-.03-30.24-3.2ZM26.48,65.93l30.22,2.4-.43.27,3.14-8.77,3.2-8.75-.02.3-2.95-11.97-2.9-11.98-5.7-23.98.22.2-3.88-.69c-1.3-.24-2.59-.52-3.87-.81-2.57-.58-5.12-1.19-7.67-1.83l.13-.03c-2.76,1.98-5.5,4-8.24,6.01-2.75,2-5.47,4.04-8.2,6.08l.09-.32,4.52,10.88,4.43,10.92c2.89,7.3,5.81,14.59,8.64,21.92l.07.18-.14.13c-1.74,1.63-3.48,3.24-5.28,4.86-1.79,1.63-3.6,3.28-5.39,4.97Z"/>
      </g>
      <g>
        <path class="cls-4" d="M75.95,341.32l-34.71-12.86-15.43-26.36,3.86-71.36-12.86-16.07v-56.57s-12.21-20.57-6.43-36c5.79-15.43,7.07-53.36,18.64-57.86s36-16.07,43.71-12.21c7.71,3.86,56.57,48.21,56.57,48.21,0,0,23.79,82.93,13.5,129.86s-9,65.57-9,65.57l-20.57,19.29s-16.07,18-23.79,21.21c-7.71,3.21-13.5,5.14-13.5,5.14Z"/>
        <path class="cls-2" d="M75.95,341.37l-34.8-12.68-.08-.03-.04-.07-15.48-26.33-.05-.08v-.09s3.72-71.36,3.72-71.36l.1.3-12.83-16.09-.09-.11v-.14s.11-56.57.11-56.57l.04.15c-2.25-4.03-4.08-8.27-5.5-12.66-1.38-4.39-2.34-8.94-2.44-13.56l-.03-.86.05-.87.1-1.73c.08-1.15.35-2.28.52-3.43.3-1.11.65-2.23.99-3.32.39-1.07.74-2.16,1.06-3.25,1.26-4.4,2.13-8.9,3-13.4l2.55-13.52c.89-4.5,1.85-8.99,3.16-13.4.66-2.2,1.42-4.38,2.37-6.48.97-2.08,2.07-4.16,3.75-5.8.81-.85,1.83-1.48,2.9-1.95l3.19-1.29,6.35-2.64c4.24-1.75,8.49-3.48,12.82-5.02,4.33-1.53,8.71-2.96,13.27-3.73,2.27-.35,4.63-.6,6.95-.03,2.32.72,4.05,2.33,5.93,3.63,3.64,2.8,7.19,5.71,10.7,8.67,14.03,11.83,27.75,24,41.37,36.3l.1.09.03.12c4.39,15.92,7.94,32.05,10.79,48.31,2.79,16.26,4.89,32.68,5.27,49.21.16,8.26-.02,16.55-1.17,24.76l-.44,3.07-.58,3.05c-.37,2.04-.84,4.04-1.27,6.06-.89,4.02-1.67,8.07-2.48,12.11-1.54,8.09-2.91,16.22-3.99,24.38-.51,4.08-1,8.17-1.31,12.28-.31,4.09-.58,8.23-.44,12.3v.16s-.1.1-.1.1l-20.62,19.23.02-.02c-2.61,2.87-5.29,5.67-8.04,8.4-2.76,2.72-5.59,5.38-8.57,7.86-1.5,1.23-3.03,2.43-4.68,3.46-.42.25-.82.53-1.25.75l-1.31.65-2.69,1.09c-3.61,1.43-7.21,2.78-10.92,4.02ZM75.95,341.27c3.62-1.26,7.26-2.66,10.84-4.12l2.68-1.12,1.28-.65c.42-.22.82-.51,1.23-.76,1.62-1.04,3.13-2.25,4.62-3.49,2.95-2.5,5.74-5.18,8.47-7.92,2.73-2.74,5.39-5.55,7.98-8.43h0s0-.02,0-.02l20.52-19.34-.1.26c-.16-4.17.08-8.28.38-12.4.3-4.12.76-8.22,1.25-12.32,1.04-8.19,2.36-16.34,3.87-24.45.79-4.05,1.55-8.1,2.42-12.14.41-2.02.87-4.04,1.24-6.05l.57-3.02.44-3.05c1.14-8.13,1.33-16.38,1.18-24.6-.37-16.46-2.45-32.84-5.22-49.07-2.83-16.22-6.38-32.34-10.74-48.22l.13.21c-13.61-12.29-27.23-24.58-41.2-36.45-3.49-2.96-7.02-5.89-10.64-8.7-1.85-1.3-3.62-2.91-5.71-3.55-2.15-.55-4.48-.33-6.71,0-4.5.74-8.88,2.15-13.19,3.66-4.32,1.53-8.57,3.23-12.81,4.97l-6.36,2.62-3.2,1.28c-1.02.45-1.99,1.03-2.77,1.85-1.62,1.57-2.73,3.62-3.69,5.67-.95,2.08-1.71,4.24-2.37,6.42-2.61,8.78-4.02,17.87-5.7,26.88-.85,4.51-1.7,9.02-2.95,13.45-.32,1.11-.66,2.2-1.05,3.29-.33,1.09-.67,2.17-.96,3.27-.16,1.12-.42,2.24-.5,3.37l-.09,1.7-.04.85.03.85c.11,4.56,1.08,9.06,2.47,13.41,1.42,4.33,3.26,8.55,5.5,12.51l.04.07v.08s.11,56.57.11,56.57l-.09-.26,12.88,16.05.11.13v.17s-4.01,71.35-4.01,71.35l-.04-.17,15.38,26.39-.12-.1,34.63,13.03Z"/>
      </g>
      <g>
        <path class="cls-3" d="M39.31,131.43s-11.89,7.71-12.54,19.61c-.64,11.89-7.07,34.39-5.79,42.43s6.75,24.11,12.86,27c6.11,2.89,11.25,4.82,11.25,4.82l11.89-2.57s35.68,3.54,36.64,2.57c.96-.96,24.11-15.75,24.11-15.75v-32.79l-30.54-45.32s-21.86-3.86-30.21-3.21c-8.36.64-17.68,3.21-17.68,3.21Z"/>
        <path class="cls-2" d="M39.33,131.47c-3.69,2.65-6.91,6.04-9.24,9.94-1.15,1.96-2.02,4.07-2.53,6.27-.3,1.09-.38,2.22-.5,3.34-.09,1.14-.14,2.3-.29,3.44-1.03,9.13-3.17,18.05-4.57,27.07-.35,2.25-.66,4.51-.82,6.77-.03.56-.08,1.13-.1,1.69v1.69c.03.55.09,1.1.14,1.66l.29,1.67c.92,4.44,2.27,8.82,3.98,13.03.86,2.1,1.79,4.18,2.93,6.14,1.14,1.94,2.43,3.85,4.16,5.25.45.32.9.6,1.4.87l1.55.73c1.03.48,2.07.96,3.12,1.42,2.09.92,4.2,1.81,6.32,2.64h-.12s11.9-2.54,11.9-2.54h.03s.03,0,.03,0c5.43.56,10.88,1.05,16.32,1.49,5.44.44,10.89.88,16.34,1.11.68.03,1.36.04,2.04.05.34,0,.68,0,1.01-.02.34-.02.68-.03.82-.15,1.14-.88,2.26-1.59,3.4-2.37l6.84-4.53,13.74-8.95-.19.35-.1-32.79.09.29-15.26-22.66c-5.1-7.55-10.14-15.13-15.18-22.72l.27.17c-3.96-.71-7.95-1.34-11.94-1.91-3.99-.56-7.99-1.05-12.01-1.35-2-.12-4.02-.25-6.01-.12-2,.14-4.01.36-6,.65-3.98.59-7.95,1.39-11.84,2.38ZM39.29,131.38c3.91-1.08,7.84-1.96,11.83-2.64,1.99-.33,4-.62,6.02-.77,2.04-.15,4.06-.04,6.08.05,4.04.25,8.06.71,12.06,1.22,4.01.53,8,1.12,11.99,1.78l.17.03.1.15c5.14,7.52,10.27,15.04,15.35,22.6l15.27,22.66.09.13v.16s-.1,32.79-.1,32.79v.23s-.19.12-.19.12l-13.83,8.79-6.88,4.45c-1.13.74-2.31,1.51-3.35,2.28-.04.04-.16.12-.3.17-.15.06-.2.04-.31.06-.19.03-.36.03-.54.04-.35.02-.69.01-1.04.01-.69,0-1.37-.03-2.06-.06-5.47-.27-10.91-.76-16.36-1.24l-16.33-1.52h.05s-11.88,2.61-11.88,2.61h-.06s-.06,0-.06,0c-2.15-.8-4.27-1.66-6.38-2.56-1.05-.45-2.1-.91-3.15-1.38l-1.56-.71c-.51-.26-1.05-.58-1.52-.91-1.86-1.47-3.2-3.41-4.4-5.38-1.18-1.99-2.16-4.08-3.06-6.2-1.76-4.25-3.14-8.65-4.09-13.17l-.31-1.71c-.05-.59-.12-1.18-.16-1.76v-1.75c.03-.58.08-1.15.12-1.73.18-2.3.5-4.58.87-6.84,1.46-9.05,3.61-17.96,4.78-27.01.16-1.13.22-2.26.33-3.4.14-1.15.24-2.31.56-3.43.56-2.25,1.48-4.4,2.7-6.36,2.46-3.9,5.75-7.22,9.55-9.81Z"/>
      </g>
      <g>
        <path class="cls-2" d="M41.88,317.53c-1.93-3.54-14.15-12.15-14.15-12.15,0,0,12.23,2.51,14.15-3.6s6.75-11.57,6.75-12.86-4.5-11.89-4.5-12.86,6.75,9.96,6.75,9.96c0,0,7.07-.64,8.36.32s-2.25,11.89-3.21,12.86,6.43,5.79,6.43,5.79c0,0,36.96-21.54,40.82-34.07,3.86-12.54,7.71-23.46,7.71-23.46,0,0-1.93,35.36-9.32,41.79s-33.75,21.54-33.75,21.54l22.5,5.14s-23.46-2.57-24.75,1.61,7.07,11.89,7.39,13.5-12.86-4.5-13.82-4.82-9,2.25-9,2.25l-2.89-8.04-4.5.32-.96-3.21Z"/>
        <path class="cls-2" d="M41.83,317.55c-.82-1.31-1.98-2.39-3.11-3.45-1.15-1.05-2.36-2.04-3.57-3.02-2.44-1.95-4.94-3.82-7.48-5.62l-.37-.26.45.08c2.29.41,4.64.57,6.96.41,1.16-.1,2.31-.28,3.39-.66,1.08-.37,2.1-.97,2.81-1.84.34-.44.6-.94.77-1.48.19-.56.36-1.12.59-1.67.42-1.1.93-2.17,1.48-3.21,1.08-2.09,2.38-4.06,3.62-6.04.3-.49.61-1,.82-1.49.13-.27.11-.39.07-.65-.07-.27-.14-.54-.24-.81-.36-1.1-.78-2.19-1.2-3.28-.84-2.18-1.7-4.35-2.52-6.56-.2-.57-.4-1.06-.55-1.77l-.02-.15s0-.06,0-.1c.01-.05,0-.06.07-.18.07-.1.16-.17.29-.19.15-.02.19,0,.23.02.27.12.25.17.34.24.12.13.22.24.31.36.19.24.36.48.54.72.69.96,1.34,1.94,1.98,2.92,1.28,1.96,2.54,3.94,3.78,5.93l-.42-.21c1.3-.1,2.58-.17,3.88-.19,1.3,0,2.59-.02,3.95.28.18.06.34.08.53.19l.28.16c.11.1.23.24.26.34.19.44.17.79.17,1.14-.02.69-.12,1.34-.24,1.98-.25,1.28-.57,2.54-.94,3.78-.37,1.24-.77,2.47-1.23,3.69-.23.61-.47,1.21-.77,1.81-.08.15-.15.3-.26.46-.04.07-.12.16-.19.25,0,0,.02-.03.01-.03,0,.08.17.39.36.59.8.91,1.83,1.71,2.84,2.48,1.02.77,2.07,1.51,3.13,2.21h-.35c5.63-3.32,11.15-6.84,16.54-10.54,5.37-3.72,10.65-7.61,15.49-11.99,2.41-2.19,4.73-4.53,6.61-7.19.93-1.33,1.75-2.74,2.23-4.29l1.45-4.69c1.96-6.25,4-12.46,6.14-18.65l.63-1.83-.12,1.94c-.41,6.95-1.09,13.88-2.14,20.78-.53,3.44-1.18,6.87-2.03,10.26-.44,1.69-.94,3.37-1.55,5.02-.62,1.64-1.33,3.28-2.41,4.75-.5.75-1.24,1.39-1.91,1.92-.67.57-1.37,1.09-2.08,1.61-1.4,1.04-2.83,2.04-4.28,3.01-2.89,1.95-5.82,3.83-8.77,5.67-5.91,3.68-11.87,7.26-17.91,10.73l-.14-.97,22.5,5.16-.17,1c-2.7-.28-5.42-.49-8.13-.64-2.71-.15-5.43-.24-8.14-.17-1.35.04-2.7.12-4.03.31-.66.1-1.32.21-1.95.4-.62.18-1.26.4-1.7.78-.09.1-.2.19-.27.3-.04.12-.14.19-.14.36-.04.3-.14.58-.08.9l.03.47c.02.16.07.31.11.47l.12.47.18.46c.48,1.23,1.18,2.39,1.93,3.5.77,1.11,1.6,2.19,2.44,3.26.83,1.09,1.74,2.07,2.46,3.35l.11.29c.04.1.04.38-.15.5-.3.18-.5.13-.68.12-.38-.03-.71-.12-1.05-.21-.67-.19-1.32-.41-1.96-.65-1.29-.47-2.55-.99-3.81-1.52l-3.76-1.63-1.87-.83c-.3-.12-.64-.31-.92-.36-.27-.03-.64.03-.96.08-2.66.52-5.28,1.32-7.88,2.12l-.09.03-.03-.09-2.87-8.04.08.05-4.5.31h-.05s-.01-.04-.01-.04l-.95-3.21ZM41.92,317.51l.98,3.22-.06-.04,4.5-.34h.06s.02.05.02.05l2.92,8.03-.13-.06c2.61-.81,5.2-1.65,7.89-2.22.35-.05.66-.14,1.07-.09.39.08.66.24.99.37l1.88.8,3.78,1.57c1.26.51,2.53,1.01,3.81,1.45.64.22,1.28.44,1.93.61.32.08.65.16.96.18.15.03.32-.02.3-.01-.04.02-.03.1-.04.04l-.08-.19c-.63-1.09-1.59-2.14-2.43-3.2-.86-1.06-1.71-2.14-2.51-3.26-.78-1.13-1.53-2.31-2.06-3.62l-.2-.49-.14-.52c-.04-.18-.1-.35-.13-.53l-.05-.55c-.07-.36.04-.75.09-1.12,0-.18.14-.39.23-.58.11-.18.27-.32.4-.47.61-.52,1.3-.74,1.98-.96.68-.21,1.37-.33,2.05-.45,1.37-.21,2.75-.31,4.12-.38,5.49-.21,10.96.13,16.41.67l-.17,1-22.5-5.12-1.3-.3,1.16-.67c6.01-3.49,12-7.02,17.9-10.67,2.95-1.82,5.89-3.69,8.77-5.62,1.44-.96,2.87-1.95,4.26-2.97.7-.51,1.39-1.02,2.05-1.58.69-.55,1.29-1.06,1.76-1.75.99-1.34,1.7-2.92,2.32-4.51.61-1.6,1.12-3.26,1.57-4.92.88-3.34,1.55-6.75,2.11-10.17,1.11-6.85,1.86-13.77,2.33-20.69l.52.1c-2.18,6.17-4.26,12.37-6.26,18.6l-1.48,4.68c-.5,1.59-1.36,3.03-2.3,4.37-1.93,2.68-4.27,5-6.66,7.24-4.83,4.44-10.08,8.39-15.43,12.16-5.37,3.76-10.86,7.32-16.49,10.69l-.17.1-.17-.11c-1.08-.71-2.14-1.44-3.18-2.22-1.03-.79-2.07-1.55-2.98-2.57-.21-.28-.48-.5-.53-1.08,0-.16.08-.35.19-.46.03-.04.06-.07.1-.14.07-.11.15-.25.21-.39.27-.55.5-1.15.73-1.74.44-1.19.83-2.41,1.19-3.64.35-1.23.67-2.47.89-3.71.11-.62.2-1.25.21-1.85,0-.29-.02-.61-.1-.76-.02-.05-.03-.03-.02-.04l-.15-.07c-.08-.06-.25-.08-.37-.13-1.16-.25-2.47-.24-3.73-.22-1.27.03-2.55.1-3.82.22l-.28.02-.15-.24c-1.23-1.99-2.46-3.97-3.73-5.93-.63-.98-1.27-1.96-1.94-2.9-.17-.24-.34-.47-.51-.69-.09-.11-.17-.22-.26-.31-.01-.03-.13-.1,0-.03.02,0,.04.02.17,0,.1-.02.18-.07.24-.16.06-.12.04-.1.06-.13,0-.02,0-.06,0-.04l.02.07c.09.44.31,1.05.5,1.58.78,2.19,1.65,4.37,2.46,6.57.4,1.1.8,2.2,1.16,3.33.09.28.17.58.24.87.02.18.08.34.04.54-.03.21-.08.37-.15.51-.26.58-.58,1.08-.89,1.57-1.28,1.97-2.59,3.9-3.69,5.95-.56,1.02-1.08,2.06-1.51,3.14-.23.53-.41,1.08-.61,1.63-.2.58-.49,1.13-.87,1.6-.79.94-1.88,1.55-3.01,1.92-1.13.38-2.31.55-3.49.63-2.36.14-4.71-.08-7.02-.51l.08-.18c2.54,1.82,5.03,3.71,7.46,5.67,1.21.99,2.41,1.99,3.56,3.05,1.13,1.08,2.29,2.14,3.12,3.5Z"/>
      </g>
      <g>
        <path class="cls-3" d="M36.8,320.89s-5.85,9.93-6.28,12.93.86,17.36.86,17.36l-6.86,6.21s5.36,4.29,19.5,2.14c14.14-2.14,18-3,18-3,0,0,3.43-4.71,0-11.57s-1.62-9.4-1.62-9.4l-19.16-7.1-4.43-7.58Z"/>
        <path class="cls-2" d="M36.8,320.94c-.54,1.12-1.22,2.33-1.81,3.49-.61,1.18-1.2,2.36-1.78,3.55-.58,1.19-1.14,2.39-1.62,3.6-.24.61-.46,1.23-.61,1.84-.16.59-.13,1.24-.16,1.89,0,2.62.19,5.27.38,7.91l.6,7.92.02.21-.15.14c-2.3,2.05-4.64,4.07-6.95,6.11v-.42c1.21.88,2.74,1.46,4.25,1.88,1.53.41,3.1.64,4.68.79,3.16.26,6.36.05,9.5-.4,3.14-.48,6.29-1.04,9.42-1.6,3.13-.56,6.29-1.11,9.37-1.76l-.27.18c.9-1.41,1.36-3.22,1.39-4.95.04-1.75-.34-3.5-1.04-5.12l-1.14-2.49c-.36-.86-.7-1.73-.95-2.65-.25-.91-.45-1.84-.49-2.81-.01-.48-.02-.97.06-1.47.09-.51.16-.96.5-1.52l.24.77c-3.2-1.18-6.37-2.42-9.55-3.63-3.18-1.21-6.36-2.45-9.53-3.7l-.09-.04-.04-.08-4.21-7.66ZM36.8,320.84c1.48,2.44,3.1,4.91,4.66,7.49l-.14-.11c3.22,1.12,6.43,2.25,9.64,3.4,3.21,1.15,6.42,2.28,9.61,3.47l.57.21-.33.56c-.13.23-.27.69-.32,1.08-.07.41-.06.84-.05,1.27.04.86.23,1.73.47,2.58.23.85.56,1.69.91,2.51.36.81.77,1.61,1.14,2.5.73,1.74,1.12,3.65,1.05,5.55-.07,1.91-.55,3.79-1.63,5.46l-.09.14-.18.03c-3.16.61-6.3,1.09-9.46,1.56-3.16.45-6.31.91-9.48,1.31-3.17.41-6.38.55-9.58.33-1.6-.13-3.19-.34-4.75-.74-1.56-.42-3.09-.89-4.5-1.83l-.27-.18.25-.24c2.25-2.11,4.49-4.23,6.76-6.32l-.14.35c-.24-2.64-.49-5.29-.63-7.94-.15-2.65-.3-5.3-.27-7.98.03-.67.01-1.36.22-2.05.18-.67.44-1.3.7-1.91.53-1.23,1.14-2.41,1.76-3.59.62-1.18,1.28-2.33,1.95-3.48.69-1.16,1.31-2.26,2.11-3.43Z"/>
      </g>
      <g>
        <path class="cls-3" d="M113.23,314.96l2.14,21.64s4.93,8.57,7.71,14.57c1.98,4.27,2.99,7.02,2.09,9.02-.51,1.14-1.47,1.74-2.09,2.12-10.16,6.26-27.05,3.75-27.05,3.75-6.76-1-7.86-2.2-8.2-3.21-.96-2.9,3.56-6.64,3.96-6.96l-6.3-18.11,8.99-4.74,18.75-18.08Z"/>
        <path class="cls-2" d="M113.25,314.91l1.28,10.7c.44,3.62.88,7.29,1.25,10.95l-.05-.16c2.37,4.11,4.68,8.24,6.75,12.52,1.03,2.14,2.03,4.29,2.78,6.58.35,1.14.65,2.36.5,3.62-.14,1.28-.98,2.4-2.01,3.05-2.07,1.22-4.24,2.24-6.54,2.87-2.29.63-4.63,1.08-6.99,1.36-4.7.49-9.53.51-14.19-.03h-.05c-1.45-.21-2.91-.44-4.35-.8-.72-.18-1.44-.4-2.14-.7-.68-.31-1.44-.71-1.88-1.5-.39-.78-.4-1.67-.18-2.44.2-.78.58-1.47,1.01-2.1.86-1.26,1.91-2.33,3.06-3.31l-.15.53-3.2-9.04-3.14-9.06-.14-.42.39-.2c3-1.58,5.99-3.15,9.02-4.68l-.1.07,19.07-17.8ZM113.22,315.01l-18.42,18.35-.04.04-.06.03c-2.97,1.63-5.96,3.21-8.96,4.8l.24-.62,3.17,9.05,3.1,9.07.11.32-.26.21c-1.09.9-2.11,1.93-2.91,3.08-.8,1.11-1.37,2.53-.85,3.65.26.52.85.9,1.48,1.19.63.29,1.31.52,2.01.71,1.39.39,2.82.65,4.26.88h-.04c4.74.64,9.44.78,14.15.31,4.67-.5,9.39-1.7,13.3-4.29.95-.64,1.61-1.62,1.71-2.73.1-1.11-.2-2.25-.58-3.34-.79-2.19-1.87-4.31-2.89-6.42-2.14-4.21-4.38-8.37-6.69-12.49l-.04-.08v-.08c-.35-3.55-.63-7.09-.9-10.69l-.87-10.95Z"/>
      </g>
      <g>
        <path class="cls-3" d="M133.81,290.15s1.95,3.26,2.34-1.5l.39-4.76s6.31,10.2,6.77,12.65,1.87,2.99,1.87,2.99c0,0,5.37-1.36,5.84-6.53.47-5.17,1.64-12.37-.62-15.91s-14.93-17.85-14.93-17.85l-1.65,30.9Z"/>
        <path class="cls-2" d="M133.85,290.14c.21.29.48.62.78.82.31.24.67.2.85-.13.34-.64.39-1.46.45-2.23l.28-4.74.06-.96.53.82c1.64,2.53,3.17,5.12,4.64,7.75.72,1.33,1.46,2.64,2.01,4.1.14.33.26.83.33,1.14.07.34.18.68.32.99.26.61.74,1.21,1.22,1.46l-.25-.02c1.83-.51,3.63-1.62,4.7-3.25,1.16-1.62,1.07-3.76,1.35-5.76.23-2.02.44-4.04.44-6.06,0-2.01-.11-4.08-.9-5.9-.38-.89-1.02-1.68-1.65-2.47-.63-.79-1.28-1.57-1.94-2.34-1.31-1.55-2.63-3.09-3.97-4.62-2.65-3.07-5.36-6.11-8.05-9.14l.92-.32-.44,7.69c-.14,2.56-.34,5.13-.5,7.7l-.56,7.72c-.18,2.58-.42,5.17-.64,7.76ZM133.76,290.17c.06-2.56.1-5.12.19-7.69l.27-7.73c.11-2.58.19-5.17.33-7.76l.39-7.76.07-1.29.86.97c2.69,3.05,5.32,6.15,7.94,9.26,1.3,1.57,2.59,3.14,3.85,4.74.63.8,1.25,1.61,1.85,2.43.59.83,1.23,1.66,1.62,2.65.39.98.58,2,.67,3.02.1,1.02.14,2.05.11,3.07-.05,2.04-.24,4.07-.42,6.09l-.28,3.04c-.07,1.04-.42,2.07-.96,2.98-1.1,1.83-2.93,3.08-4.97,3.74l-.13.04-.12-.06c-.88-.42-1.34-1.13-1.7-1.86-.17-.37-.3-.76-.39-1.14-.1-.42-.16-.66-.31-1.02-.55-1.34-1.24-2.68-1.94-4-1.41-2.64-2.94-5.22-4.44-7.82l.59-.14-.49,4.72c-.12.79-.19,1.61-.64,2.35-.14.17-.32.36-.58.36-.25.02-.45-.1-.61-.23-.33-.27-.55-.58-.76-.96Z"/>
      </g>
      <g>
        <path class="cls-3" d="M27.94,262.68s-13.6,16.18-16.49,17.04c-2.89.86-8.04,6.27-8.46,9.67s-2.68,3.94-2.79,6.08.11,3.43.64,4.82,1.71,1.93,3,.75,2.89-.21,5.46-.11,4.82-5.14,6.43-5.36,3.43-1.07,5.57-4.82,2.55-5.46,4.07-7.18,2.56-20.89,2.56-20.89Z"/>
        <path class="cls-2" d="M27.92,262.72c-2.54,3.4-5.41,6.73-8.28,9.96-1.46,1.6-2.94,3.19-4.51,4.71-.79.76-1.58,1.51-2.52,2.15-.21.17-.49.32-.78.45-.31.16-.5.21-.74.3-.46.21-.91.46-1.34.75-1.74,1.17-3.29,2.7-4.59,4.38-.64.85-1.23,1.75-1.64,2.72-.2.5-.31.98-.4,1.53-.08.55-.25,1.09-.47,1.59-.42,1.04-1.23,1.84-1.8,2.72-.62.87-.51,1.98-.49,3.05.04,1.07.25,2.12.66,3.1.19.48.47.91.88,1.13.4.23.88.16,1.28-.1.22-.13.36-.28.6-.48.23-.2.51-.35.8-.44.6-.19,1.2-.14,1.74-.08,1.09.14,2.17.37,3.15.33.43-.02.86-.24,1.25-.55.4-.29.76-.67,1.11-1.06.7-.79,1.32-1.66,2.05-2.51.39-.41.72-.86,1.38-1.18.43-.16.63-.14.87-.21.24-.05.47-.13.7-.22.9-.38,1.68-1.05,2.34-1.84,1.32-1.59,2.29-3.53,3.28-5.44.49-.96.94-1.95,1.54-2.91.3-.48.66-.95,1.01-1.36.17-.24.36-.82.48-1.3.5-2.05.77-4.21,1.04-6.34.54-4.26.92-8.64,1.39-12.86ZM27.96,262.63c-.03,4.43-.28,8.69-.65,13.03-.21,2.16-.42,4.32-.88,6.49-.16.56-.21,1.07-.65,1.72-.35.41-.65.8-.92,1.25-.54.88-.99,1.86-1.48,2.83-.48.98-.99,1.95-1.52,2.9-.54.96-1.13,1.91-1.88,2.76-.73.85-1.64,1.64-2.75,2.08-.28.11-.56.2-.85.26-.28.06-.64.1-.71.15-.33.14-.72.54-1.06.92-.7.78-1.34,1.67-2.1,2.48-.38.41-.78.81-1.27,1.14-.46.34-1.04.64-1.7.67-1.19.01-2.24-.27-3.29-.44-.52-.08-1.03-.13-1.47-.01-.22.06-.43.16-.62.31-.18.14-.44.36-.69.5-.51.31-1.25.4-1.8.05-.55-.33-.85-.88-1.04-1.41-.38-1.04-.58-2.14-.61-3.24-.02-.55,0-1.09.03-1.64.03-.57.25-1.12.56-1.59.62-.92,1.36-1.71,1.74-2.7.2-.49.35-.99.42-1.52.07-.52.2-1.1.39-1.61.38-1.05.95-2,1.57-2.9,1.27-1.79,2.76-3.43,4.57-4.74.46-.32.95-.61,1.47-.85.26-.11.59-.21.76-.32.2-.1.4-.19.61-.37.42-.3.82-.63,1.22-.99.4-.34.79-.71,1.19-1.08,1.56-1.47,3.06-3.03,4.55-4.6l8.88-9.53Z"/>
      </g>
      <g>
        <path class="cls-2" d="M33.24,64.34s-3.94,1.47-6.73,4.4c-.83.87-1.56,1.88-2.05,3.01-2.14,4.93-3.64,9.21-3.64,9.21,0,0,9.21-10.93,14.78-12.22s6.44,4.79,6.92,10.22,5.25,5.43,8.17,9.29,12.42,21.21,12.42,21.21c0,0-16.24-34.66-12.42-44.93s9.38,6.75,12.42-.2,9.64-12.31,9.64-12.31c0,0-6.97-2.51-22.93,3.88-15.97,6.39-16.56,8.43-16.56,8.43Z"/>
        <path class="cls-2" d="M33.27,64.38c-1.69.73-3.24,1.62-4.67,2.72-1.41,1.09-2.69,2.39-3.54,3.94-.77,1.58-1.41,3.3-2.07,4.97-.65,1.68-1.27,3.37-1.86,5.07l-.59-.34c1.92-2.29,3.97-4.44,6.14-6.49,1.09-1.02,2.21-2.01,3.4-2.93,1.18-.92,2.42-1.79,3.83-2.43,1.39-.62,3.03-1.05,4.64-.51.8.25,1.45.82,1.97,1.43.51.63.85,1.34,1.13,2.06.54,1.45.79,2.94.99,4.43.23,1.48.18,3.01.59,4.32.24.65.55,1.28,1.01,1.81.45.53.99,1.01,1.57,1.44,1.17.86,2.48,1.62,3.61,2.64,1.17.99,1.99,2.31,2.77,3.55.78,1.26,1.54,2.54,2.29,3.82,3,5.12,5.86,10.31,8.75,15.49l-.31.16c-2.78-6.04-5.4-12.14-7.71-18.38-1.15-3.12-2.23-6.27-3.18-9.46-.93-3.2-1.76-6.44-2.18-9.78-.21-1.66-.34-3.36-.17-5.07.04-.43.13-.86.19-1.28.1-.42.23-.85.36-1.27.31-.8.66-1.6,1.2-2.33.29-.36.61-.72,1.05-.97.42-.28.99-.38,1.5-.33,1.03.12,1.79.68,2.47,1.21,1.35,1.07,2.44,2.38,3.7,3.24.31.21.64.37.92.4.29.04.51-.03.75-.21.48-.42.76-1.15,1.14-1.93.74-1.53,1.62-2.97,2.6-4.34,1.98-2.73,4.26-5.19,6.85-7.38l.14.85c-.73-.23-1.63-.35-2.47-.42-.86-.08-1.72-.08-2.59-.06-1.73.05-3.47.27-5.19.55-3.44.61-6.82,1.59-10.12,2.77-3.3,1.19-6.56,2.54-9.79,3.93-1.61.71-3.22,1.43-4.78,2.22-.78.4-1.56.81-2.31,1.27-.73.47-1.53.91-2.05,1.61ZM33.2,64.31c.51-.73,1.3-1.2,2.02-1.7.74-.48,1.51-.92,2.28-1.35,1.55-.85,3.14-1.62,4.73-2.38,3.21-1.47,6.44-2.87,9.75-4.12,3.31-1.24,6.7-2.29,10.19-2.97,1.75-.32,3.51-.57,5.3-.65.89-.04,1.79-.05,2.69.02.91.06,1.78.15,2.73.43l.84.25-.7.6c-2.46,2.12-4.73,4.56-6.63,7.21-.95,1.33-1.8,2.73-2.5,4.19-.36.69-.63,1.59-1.41,2.29-.41.35-1.03.53-1.57.44-.54-.08-.97-.32-1.35-.56-1.49-1.01-2.53-2.32-3.78-3.31-.61-.49-1.28-.94-1.92-1-.62-.09-1.19.3-1.65.89-1.89,2.57-1.85,6.01-1.45,9.23.86,6.52,2.87,12.88,5.03,19.13,2.22,6.24,4.67,12.42,7.43,18.45l-.31.16c-2.83-5.21-5.75-10.37-8.79-15.46-.76-1.27-1.55-2.52-2.35-3.76-.82-1.23-1.62-2.46-2.75-3.37-1.1-.95-2.39-1.66-3.62-2.53-.62-.44-1.21-.94-1.73-1.52-.52-.59-.9-1.3-1.18-2.03-.24-.74-.37-1.54-.44-2.27-.08-.73-.15-1.47-.25-2.19-.2-1.45-.46-2.9-.97-4.23-.5-1.31-1.33-2.54-2.59-2.95-1.25-.42-2.71-.11-3.98.46-1.3.58-2.52,1.41-3.68,2.3-1.17.88-2.28,1.85-3.36,2.85-2.16,2-4.2,4.15-6.15,6.35l-1.22,1.38.63-1.72c.62-1.71,1.28-3.39,1.97-5.06.71-1.67,1.35-3.34,2.2-4.98.94-1.6,2.3-2.88,3.78-3.94,1.47-1.05,3.11-1.93,4.76-2.56Z"/>
      </g>
      <g>
        <path class="cls-2" d="M128.16,131.96s9.14,32.57,5.64,58.71c-3.5,26.14-8.29,39.86-8.29,39.86,0,0,11.65-13.29,12.08-21.43s3.43,5.14,3.43,5.14c0,0,1.29-25.29,0-33s-7.22-31.29-7.22-31.29l-4.78-33.43-.86,15.43Z"/>
        <path class="cls-2" d="M128.21,131.96c2.27,8.01,3.95,16.22,5.16,24.48.28,2.07.59,4.14.78,6.22l.31,3.12.23,3.13c.19,2.08.2,4.18.3,6.27.01,2.09.05,4.18-.02,6.28-.13,2.09-.16,4.19-.43,6.27l-.34,3.12-.45,3.1c-.61,4.13-1.32,8.24-2.12,12.34-.79,4.1-1.67,8.18-2.65,12.24-.98,4.06-2.02,8.1-3.34,12.07l-.26-.15c1.94-2.29,3.77-4.69,5.47-7.16,1.69-2.48,3.29-5.03,4.55-7.75.6-1.36,1.2-2.74,1.52-4.19.22-.71.26-1.45.36-2.17.06-.76.07-1.51.29-2.3.1-.2.08-.42.45-.65.08-.04.22-.04.33-.02.08.03.15.07.22.12.1.09.19.18.25.26.25.35.41.7.56,1.06.3.71.54,1.43.76,2.16.45,1.45.83,2.91,1.18,4.38l-.69.06c.23-5.42.36-10.84.43-16.27.02-5.41.13-10.88-.52-16.18-.41-2.65-1.04-5.3-1.61-7.94l-1.81-7.93c-1.24-5.28-2.53-10.55-3.83-15.82v-.03s0-.02,0-.02l-4.54-33.46.49-.02-1.05,15.41ZM128.11,131.97l.66-15.45.49-.02,5.03,33.39v-.05c1.33,5.27,2.61,10.54,3.87,15.82,1.23,5.3,2.54,10.55,3.42,15.96.63,5.48.48,10.91.43,16.35-.11,5.43-.34,10.86-.64,16.29l-.14,2.53-.55-2.47c-.33-1.46-.69-2.92-1.11-4.35-.21-.71-.44-1.43-.71-2.11-.14-.34-.29-.68-.47-.94-.08-.14-.24-.19-.1-.17.03-.04-.09.15-.13.28-.19.66-.23,1.42-.3,2.16-.11.76-.16,1.54-.4,2.27-.35,1.49-.97,2.89-1.6,4.27-1.3,2.74-2.94,5.29-4.66,7.76-1.74,2.47-3.59,4.85-5.56,7.13l-.48.55.22-.7c2.52-7.93,4.24-16.12,5.67-24.32.72-4.1,1.34-8.22,1.9-12.35l.43-3.09.31-3.1c.26-2.06.28-4.14.39-6.21.32-8.3-.37-16.63-1.39-24.88-.55-4.13-1.17-8.24-1.95-12.34-.76-4.1-1.59-8.17-2.63-12.23Z"/>
      </g>
      <polygon class="cls-1" points="62.79 185.21 72.1 185.21 67.45 189.34 62.79 185.21"/>
      <circle class="cls-1" cx="45.66" cy="176.75" r="3.21"/>
      <circle class="cls-1" cx="87.2" cy="176.79" r="3.21"/>
      <path class="cls-6" d="M67.45,189.34v11.09s18.93,2.57,24.08-1.29"/>
      <path class="cls-6" d="M48.88,198.34s5.52,2.32,9.21,2.93,9.35-.84,9.35-.84"/>
    </g>
  </g>
</svg>