<?xml version="1.0" encoding="UTF-8"?>
<svg id="Capa_2" data-name="Capa 2" xmlns="http://www.w3.org/2000/svg" viewBox="0 0 418.8 137.79">
  <defs>
    <style>
      .cls-1 {
        fill: #562904;
      }

      .cls-1, .cls-2, .cls-3, .cls-4 {
        stroke-width: 0px;
      }

      .cls-2 {
        fill: #7d4e24;
      }

      .cls-3 {
        fill: #d1a36b;
      }

      .cls-4 {
        fill: #563206;
      }
    </style>
  </defs>
  <g id="mono">
    <g>
      <g>
        <path class="cls-2" d="M398.75,127.74s-13.36-26.42-19.65-53.53,17.29-62.57,17.29-62.57h-58.15c-11.79,0-17.29-10.43-19.65-11.12s-66.01,4.87-66.01,4.87h-86.44s-38.5,8.34-47.93,9.03-60.51.7-84.08,0S.35,58.91.35,58.91c0,0,6.29,32.68,10.22,33.37l3.93.7s-7.07,13.9-6.29,16.69,3.93,18.08,3.93,18.08h110.01l7.07-4.87s3.14,6.26,11.79,8.34,40.54,0,40.54,0l67.11-2.09h14.14l27.5,8.34,92.72-5.56,15.72-4.17"/>
        <path class="cls-1" d="M398.71,127.77c-6.81-13.86-12.58-28.26-17.05-43.05-1.37-4.97-2.95-9.91-3.56-15.05-1.56-15.55,3.89-30.85,10.49-44.69,2.27-4.63,4.74-9.16,7.53-13.52,0,0,.28.52.28.52l-36.91.05s-18.46.03-18.46.03c-3.08.06-6.31,0-9.25-1.11-2.97-1.06-5.63-2.83-7.92-4.94-1.71-1.5-3.2-3.36-4.91-4.79-.56-.47-1.27-.28-1.95-.31-21.5,1.02-42.96,3.11-64.41,4.83.03.01-86.61-.13-86.39-.13-7.85,1.68-15.71,3.3-23.58,4.85-7.89,1.5-15.75,3.14-23.74,4.05-4.01.32-8.03.33-12.04.43-23.99.32-48.26.31-72.23-.24-8.2-.46-15.14,5.14-19.74,11.48C7.86,35.67,3.52,48.04.69,58.85c1.28,6.41,2.7,12.8,4.36,19.12.85,3.15,1.74,6.3,2.88,9.34.7,1.58,1.27,3.71,2.7,4.57,0,0,.3.05.3.05l1.21.21,2.42.42s.54.1.54.1c0,0-.25.5-.25.5-2,4.06-3.96,8.18-5.46,12.46-.42,1.32-1.03,2.85-.7,4.18,1.28,5.17,2.76,12.57,3.88,17.84,0,0-.44-.36-.44-.36-.1.02,110.98-.14,109.74.06,0,0,7.07-4.87,7.07-4.87l.43-.3s.28.48.28.48c2.78,4.76,8.2,7.82,13.64,8.46,14.1,1.34,28.46-.09,42.6-.53,15.51-.51,44.39-1.3,59.81-1.77,5.09-.16,11.98-.05,17.1-.06.11-.02,27.49,8.39,27.6,8.41-.48.05,92.74-5.4,92.6-5.35,0,0,15.73-4.12,15.73-4.12.26.23-15.7,4.23-15.68,4.32-.13,0-92.72,5.83-92.85,5.78.03-.03-27.88-8.35-27.41-8.28-9.65-.13-24.38.31-34.16.68-9.45.32-38.01,1.25-46.97,1.51-12.82.62-25.68,1.57-38.51.37-5.75-.71-11.35-3.82-14.38-8.99,0,0,.7.18.7.18,0,0-7.07,4.86-7.07,4.86-.31.35-109.93-.1-110.29.06,0,0-.37,0-.37,0,0,0-.08-.36-.08-.36-1.13-5.26-2.58-12.66-3.85-17.79-.12-.4-.17-.87-.12-1.28,1.06-5.67,3.98-10.8,6.4-15.97,0,0,.3.59.3.59l-2.42-.43s-1.21-.22-1.21-.22c0,0-.3-.05-.3-.05-.14-.04-.29-.08-.41-.15-1.63-1.18-2.14-3.21-2.9-4.94-1.15-3.1-2.03-6.26-2.87-9.43-1.66-6.37-3.06-12.8-4.32-19.26,3.01-11.68,7.29-23.27,14.43-33.08,4.69-6.42,11.82-12.16,20.2-11.64,4.01.11,8.02.2,12.03.27,23.93.22,48.27.74,72.19-.26,15.89-2.1,31.56-5.78,47.26-9.03,0-.05,86.57-.11,86.46-.13,12.26-1.08,24.52-2.13,36.78-3.12,6.13-.49,12.27-.97,18.41-1.39,3.07-.2,6.14-.42,9.24-.5.84-.03,1.8-.09,2.48.47,1.86,1.49,3.21,3.34,4.99,4.87,3.32,3.09,7.46,5.35,12,5.76,15.14.27,45.24.09,60.56.18-2.91,4.47-5.5,9.16-7.87,13.95-6.58,13.72-12.06,28.92-10.56,44.35.59,5.09,2.16,10.04,3.48,14.99,4.25,14.8,10.28,29.37,16.63,43.17h0Z"/>
      </g>
      <g>
        <path class="cls-3" d="M396.48,11.84s29.6,51.45,20.2,78.79-17.45,35.69-17.45,35.69c0,0-41.39-38.01-26.62-70.91,14.77-32.91,23.88-43.57,23.88-43.57Z"/>
        <path class="cls-4" d="M396.49,11.79c11.34,20.16,24.84,49.36,21.9,72.81-.68,4.97-2.95,10-4.67,14.68-2.87,7.14-5.94,14.24-9.87,20.87-1.38,2.27-2.8,4.52-4.59,6.54-4.04-3.79-7.75-7.88-11.25-12.16-13.24-16.3-25.36-39.42-15.43-60.21,6.99-14.68,13.91-29.62,23.92-42.53h0ZM396.48,11.89c-9.41,13.19-16.35,28.11-23.02,42.83-9.6,20.52,2.37,43.08,15.11,59.35,3.36,4.23,6.94,8.32,10.84,12.06,0,0-.36.01-.36.01,1.67-1.88,3.08-4.05,4.42-6.22,3.99-6.57,7.15-13.61,9.91-20.78,1.69-4.66,3.84-9.7,4.42-14.63,2.42-23.13-10.85-52.27-21.31-72.63h0Z"/>
      </g>
      <path class="cls-4" d="M80.81,24.72c4.45-1.45,9.05-1.6,13.66-1.62,3.05-.24,5.97-1.4,8.94-2.02,4.48-1.09,8.88-1.88,13.52-2.38,0,0,.06.19.06.19-2.72,1.55-5.69,2.53-8.68,3.28-4.51,1.15-9.19.92-13.76,1.57-2.99.67-5.98,1.56-9.09,1.47-1.54.02-3.08-.02-4.64-.3v-.2h-.01Z"/>
      <path class="cls-4" d="M11.64,56.7c10.01-3.06,20.42-4.25,30.87-4.01,1.33.03,2.64.05,3.96.38,1.11.33,2.63.77,3.74.99,7.6,1.5,15.29,2.62,22.9,4.07,0,0-.55.07-.55.07,2.39-.95,4.78-1.9,7.2-2.77,9.41-3.44,9.77-3.4.54,1.25-2.37,1.21-4.78,2.34-7.19,3.47-2.69-.37-5.35-.79-8.01-1.29-5.11-1.04-10.22-2.06-15.18-3.72-2.47-.82-4.73-1.99-7.42-1.84-5.17-.05-10.24,1.31-15.36,1.91-5.13.65-10.26,1.33-15.46,1.69,0,0-.04-.2-.04-.2h0Z"/>
      <path class="cls-4" d="M167.24,71.53c10.45-1.87,21.09-2.97,31.73-2.37,3.95.29,8.04.95,11.83,2.15,6.04,2.01,13.51,1.55,18.44-2.72,0,0,.25.86.25.86-5.51-.82-10.99-1.76-16.44-2.97-2.72-.61-5.44-1.26-8.14-2.08-1.74-.59-3.63-1.04-5.16-2.32-.24-.23-.47-.53-.58-.93-.33-1.24,1-2.01,1.76-2.22,3.17-.89,6.48-.77,9.58-.97,4.88-.23,11.8-.53,16.6-.91,2.71-.27,5.57-.36,8.18-1.09,0,0,.11.17.11.17-2.62,1.1-5.4,1.44-8.17,1.94-5.51.86-11.05,1.42-16.6,1.84-3.22.34-6.6.17-9.49,1.25.14-.15.16-.51.06-.64,1.15.91,2.83,1.37,4.33,1.92,5.23,1.69,10.66,2.91,16.02,4.18,3.04.71,6.1,1.43,9.16,2.06-2.34,2.06-5.2,3.28-8.2,3.9-3.92.87-8.09.52-11.96-.41-8.99-1.99-18.29-1.38-27.46-1.21-5.27.19-10.55.5-15.85.76,0,0-.02-.2-.02-.2h0Z"/>
      <path class="cls-4" d="M144.74,39.08c5.47-.02,10.89.18,16.31.32,5.41.09,10.84.76,16.26.3,2.35-.14,5.71-.93,8.03-1.44,2.73-.46,5.54-.58,8.31-.33,5.56.55,10.95,1.99,15.98,4.5,0,0-.47-.11-.47-.11,6.12.11,12.23.37,18.34.93,0,0,0,.2,0,.2-3.06.3-6.11.46-9.17.63-3.12.14-6.25.25-9.37.3,0,0-.26-.12-.26-.12-7.22-3.2-15.23-5.47-23.23-5-8.09,1.05-16.3,2.24-24.48,1.93-5.46-.25-10.91-.79-16.27-1.91,0,0,.02-.2.02-.2h0Z"/>
      <path class="cls-4" d="M179.3,21.7c2.08-.68,4.16-.91,6.29-.73,2.08.4,4.17.78,6.29.29,1.44-.29,2.87-.39,4.3-.48,2.81.84,5.42,2.14,7.78,3.94,0,0-.07.19-.07.19-1.47-.09-2.86-.38-4.22-.74-1.37-.35-2.69-.81-3.96-1.42l.36.07c-2.79,0-5.59-1.09-8.38-.56-2.79.67-5.62.55-8.38-.36,0,0,0-.2,0-.2h0Z"/>
      <path class="cls-4" d="M391.55,29.97c-4.35,8.74-9.02,17.19-13.36,25.88-.78,1.72-1.63,3.55-2.11,5.38-1.08,3.69-.31,7.72.08,11.49.55,3.83,1.38,7.6,2.51,11.25,1.69,5.58,4.59,10.44,7.92,15.17,3.15,4.68,6.62,9.89,9.67,14.61,0,0-.16.12-.16.12-2.64-2.89-5.11-5.91-7.54-8.97-2.41-3.09-4.75-6.15-6.97-9.46-6.14-9.74-7.21-21.71-6.47-32.93,1.79-8.18,5.43-15.8,9.74-22.91,2.01-3.35,4.16-6.61,6.52-9.74l.17.11h0Z"/>
      <path class="cls-4" d="M382.5,85.45c.07-.77.33-1.39,1.01-1.64.73-.06,1.31.05,1.61-.81.53-1.34,1.58-2.03,3.14-1.72,0,0,.12.16.12.16-.18,1.21-.67,1.9-1.67,2.25-.5.29-1.4.05-1.81.54-.2.22-.26.66-.42.94-.17.28-.45.39-.75.48-.25.04-1.02.2-1.24-.19h0Z"/>
      <path class="cls-4" d="M388.41,49.9c-.14,1.75-.6,3.36-1.41,4.87-.44.72-1.04,1.38-1.39,2.14-.74,1.53-.59,3.31-.95,4.94-.4,2.53-1.03,4.74-1.99,7.22,0,0-.2,0-.2,0-.63-1.71-.61-3.52-.36-5.23.36-2.62,2.05-4.74,2.9-7.16.33-1.67.46-3.45,1.52-4.88.47-.72.98-1.42,1.71-2l.18.09h0Z"/>
      <path class="cls-4" d="M402.57,71.46c-.17,3.92.61,8.62-2.25,11.87-1.96,2.05-4.23.47-5.01-1.75-1.17-3.28-1.54-6.67-1.89-10.12-.27-3.47-.01-7.08,1.46-10.34.96-2.28,3.55-3.87,5.53-1.62,2.76,3.33,2.01,8.01,2.15,11.96h0ZM402.37,71.46c-.02-3.29-1.04-6.6-2.59-9.42-.36-.59-.95-1.49-1.55-1.5-1.28.32-2.22,3.05-2.61,4.45-1,4.19-1.72,8.81-.6,13.08.43,1.55,1.61,4.44,3.21,4.54.49-.04,1.16-.82,1.62-1.7,1.48-2.86,2.53-6.16,2.52-9.46h0Z"/>
      <path class="cls-4" d="M394.01,95.17c11.91,2.59,14.55-11.22,15.26-20.16.33-10.08-1.96-20.08-3.94-29.91-.92-4.06-1.78-8.15-3.37-11.96-1.1-2.28-2.23-4.56-3.25-6.89,0,0,.17-.1.17-.1,1.89,2.83,4.02,5.58,5.41,8.7,2.68,6.34,3.99,13.06,4.87,19.83.92,6.74.82,13.56.76,20.35-.03,3.42-.05,6.85-.75,10.23-.19,1.21-.72,2.62-1.13,3.77-.96,2-2.17,4.01-4,5.34-2.83,2.27-6.89,2.51-10.1.99,0,0,.07-.19.07-.19h0Z"/>
      <path class="cls-4" d="M398.67,116.53c1.62-3.6,3.41-7.04,5.38-10.43,1.6-2.46,3.22-4.93,4.23-7.71,2.63-8.35,4.63-16.77,5.09-25.59,0,0,.2-.03.2-.03,1.62,5.8.88,12.08-1.09,17.71-1.15,3.81-3.29,7.2-4.78,10.87-1.12,2.73-1.95,5.63-3.54,8.16-.36.64-1.16,1.91-1.58,2.51-1.12,1.63-2.31,3.22-3.74,4.63l-.16-.12h0Z"/>
      <path class="cls-4" d="M396.28,29.88c2.17,3.05,2.94,6.65,3.36,10.26.95,3.48,2.83,6.71,3.4,10.32.41,2.36.7,4.76.57,7.24l-.2.04c-1.67-3.3-2.57-6.75-3.14-10.34-.5-2.33-.45-4.82-1.26-7.08-.92-2.21-2.13-4.33-2.49-6.75-.24-1.18-.43-2.37-.44-3.63,0,0,.19-.06.19-.06h0Z"/>
      <path class="cls-4" d="M388.39,38.45c.79-.1,1.47.04,1.89.65.15.3.18.75.37.99.19.26.5.37.85.43.68.1,1.26.38,1.75.81.41.47.73,1.05.78,1.94,0,0-.13.15-.13.15-.89.08-1.51-.14-2.04-.47-.51-.42-.87-.94-1.07-1.6-.11-.34-.28-.63-.56-.77-.27-.16-.72-.11-1.04-.21-.32-.1-.5-.37-.67-.65-.1-.23-.46-.98-.14-1.27h0Z"/>
      <path class="cls-4" d="M398.32,101.76c.54.37.94.82.73,1.39-.13.23-.45.46-.51.7-.07.23.04.46.22.7.35.42.53.88.52,1.39-.09.46-.33.93-.97,1.39,0,0-.2,0-.2,0-.64-.46-.88-.93-.97-1.39-.01-.51.17-.97.52-1.39.19-.23.3-.46.22-.7-.06-.23-.38-.46-.51-.7-.2-.57.19-1.02.73-1.39,0,0,.2,0,.2,0h0Z"/>
      <path class="cls-4" d="M235.32,78.49c3.78-1.93,7.72-3.55,11.74-4.92,6.04-2,12.43-3.75,18.89-3.17,2.16.19,4.14,1.1,6.21,1.67,12.16,3.2,24.94,4.59,37.41,5.4,8.38.17,16.88.36,25.32,1.01,0,0,0,.2,0,.2-8.49.61-16.86.94-25.39.92-8.53-.36-16.92-1.84-25.18-3.84-4.12-1-8.22-2.03-12.33-3.07-2.02-.48-4.01-1.19-6.11-1.18-10.45.53-20.39,4.24-30.49,7.16,0,0-.08-.18-.08-.18h0Z"/>
      <path class="cls-4" d="M256.33,81.27c1.38-.33,2.7-.3,4,.14.62.25,1.2.69,1.84.86,1.28.38,2.68-.13,3.97-.06,2.04-.05,3.84.27,5.82,1.13,0,0,0,.2,0,.2-1.31.68-2.69.86-4.04.86-2.07.02-3.88-1.2-5.86-1.5-1.33.05-2.73.34-4-.33-.62-.27-1.23-.59-1.78-1.12l.05-.19h0Z"/>
      <path class="cls-4" d="M247.98,83.38c7.83,3.83,21.47,11.07,30.06,8.38,6.03-2.48,12.53-3.77,18.9-5.12,4.27-.87,8.58-1.53,12.93-1.94,2.73-.23,5.49-.5,8.27-.38,1.76.18,3.17.66,4.91.94,8.49,1.64,17.02,3.27,25.48,5.27l-.03.2c-8.67-.76-17.26-1.88-25.84-3.37-1.48-.22-3.19-.75-4.67-.91-2.64-.17-5.3-.02-7.97.13-9.61.79-19.58,1.15-28.63,4.78-7.28,4.57-15.04,2.23-22.29-1.1-3.97-1.85-7.74-4.09-11.23-6.71,0,0,.11-.17.11-.17h0Z"/>
      <path class="cls-4" d="M342.73,101.66c2.92-1.1,5.97-1.66,9.06-1.78,3.09.13,6.15.28,9.22-.29,4.07-.46,8.66-1.01,12.36,1.21,1.67,1.37,3.12,2.93,4.53,4.58,0,0-.12.16-.12.16-1.4-.69-2.74-1.47-4.03-2.3-2.29-1.78-5.03-1.74-8.17-2.14-3.01-.18-6.09-.79-9.12-.43-3.02.47-5.98,1.3-9.08,1.28-1.53.05-3.06.07-4.63-.1l-.03-.2h0Z"/>
      <path class="cls-4" d="M264.17,26.11c5.4.57,10.7-.57,16.14-.45,5.48.3,10.96.86,16.18,2.7,9.62,4.97,20.08,7.39,30.56,10.07,0,0-.02.2-.02.2-10.18-.29-20.73-2.53-29.33-8.22-2.72-1.9-5.97-3.01-9.29-3.3-5.4-.37-10.73.7-16.17.49-2.71-.06-5.55-.21-8.12-1.3l.06-.19h0Z"/>
      <path class="cls-4" d="M256.34,40.85c7.16.88,14.37,1.39,21.54,2.1,5.34.58,10.81,1.27,16.15.34,5.28-1.19,10.65-2.52,16.09-2.93,10.84-1,21.76-.3,32.64.47,0,0,0,.2,0,.2-14.41,1.46-28.84.31-43.25,2.12-10.73,1.76-21.82,2.11-32.59.35-3.58-.59-7.17-1.23-10.64-2.45,0,0,.06-.19.06-.19h0Z"/>
      <path class="cls-4" d="M285.06,11.76c.81-1.4,2.38-2.16,3.92-2.29.78,0,1.55.22,2.29.24,1.11.06,2.23-.29,3.34-.41,2.65-.17,5.35.6,7.31,2.45,0,0-.07.19-.07.19-.8.1-1.53.05-2.25-.02-2.15-.11-4.13-.71-6.18-1.35-1.04-.37-2.15-.36-3.15.1-1.62.84-3.18.97-5.09,1.25,0,0-.12-.16-.12-.16h0Z"/>
      <path class="cls-4" d="M346.39,26.11c2.5-1.84,5.53-2.15,8.5-2.05,2.9-.45,5.66-1.77,8.65-1.77,1.97-.02,3.97.19,5.88.92v.2c-2.94.79-5.68,1.1-8.62,1.12-1.91.12-3.92-.32-5.81.16-1.84.59-3.6,1.5-5.59,1.57-.97.08-1.94.16-2.97.04l-.05-.19h0Z"/>
      <path class="cls-4" d="M238.98,14.53c2.42-2.5,5.7-3.57,9.01-4.16,3.14-1.12,6.03-3.01,9.4-3.5,2.22-.33,4.54-.38,6.76.23v.2c-3.25.98-6.26,1.7-9.52,2.28-2.11.48-4.41.48-6.41,1.39-1.95,1.01-3.73,2.34-5.89,2.91-1.05.34-2.1.65-3.25.82l-.09-.18h0Z"/>
      <path class="cls-4" d="M243.78,30c-1.41,1.32-3.27,1.96-5.14,2.11-.93.04-1.88-.16-2.79-.1-2.72.3-5.34,1.44-8.13,1.36-1.83-.04-3.66-.25-5.47-.9,0,0,0-.2,0-.2,2.63-.9,5.34-1.16,8.09-1.03,1.79-.05,3.65.53,5.42.14,2.73-.98,4.93-1.62,7.92-1.55,0,0,.09.18.09.18h0Z"/>
      <path class="cls-4" d="M37.88,85.44c10.13,1.05,20.21,2.2,30.29,1.03,4.59-.76,8.77-3.03,13.34-3.98,5.48-1.38,11.41-1.64,16.94-.11,1.86.49,3.68,1.4,5.29,2.47,6.28,3.33,14.11,3.95,21.09,5.23,0,0-.01.2-.01.2-3.73.09-7.46-.13-11.18-.57-3.83-.55-7.56-1.08-11.05-3.07-2.92-2.02-6.39-2.92-9.98-3.35-5.39-.5-11.03-.08-16.28,1.44-5.27,1.83-10.69,3.61-16.34,3.87-3.76.22-7.52-.04-11.22-.54-3.71-.5-7.37-1.28-10.93-2.42l.05-.19h0Z"/>
      <path class="cls-4" d="M87.11,90.07c.96-.59,1.91-.83,2.97-.7.49.11,1,.41,1.5.42,1.01.08,1.89-.78,2.82-1.04,1.46-.61,2.75-.73,4.44-.53,0,0,.09.18.09.18-.65,1.03-1.61,1.6-2.6,1.96-1.02.3-2.1.35-3.15.12-.54-.13-1.05-.16-1.55-.05-.5.11-.99.46-1.5.61-1.03.21-2.08-.03-3.05-.77v-.2h.01Z"/>
      <path class="cls-4" d="M54.62,93.06c7.08-.26,14.21-.18,21.24.89,1.69.25,3.59.66,5.26,1.1,2.78.72,5.63.94,8.54.95,7.1.16,14.04-1.39,21.11-1.85,14.09-.6,28.24-1.26,42.35-1.2,4.7-.02,9.4-.02,14.12.12,0,0,0,.2,0,.2-4.69.52-9.4.89-14.11,1.25-14.03.86-28.32,1.21-42.37.73-9.46-.25-18.7,2.69-28.27,1.82-4.6-.91-9.18-1.87-13.86-2.33,0,0-14.03-1.47-14.03-1.47,0,0,0-.2,0-.2h0Z"/>
      <path class="cls-4" d="M144.67,107.23c6.01-4.85,15.54-10.67,23.37-7.17,5.14,2.12,10.81,2.29,16.27,2.99,2.73.29,5.4.64,8.23.75,5.53.36,11.09.78,16.63,1.56,0,0,0,.2,0,.2-7.04.52-13.98.78-21.01.02-4.09-.68-8.3-1.24-12.31-2.42-2.71-.75-5.39-1.55-8.03-2.49-1.3-.52-2.56-.71-3.93-.56-6.76,1.04-12.79,4.4-19.09,7.29,0,0-.11-.17-.11-.17h0Z"/>
      <path class="cls-4" d="M182.47,99.45c2.31-.19,4.53-.19,6.81.12,2.21.52,4.51.87,6.74.16,4.37-1.11,8.62-2.29,13.1-3.23,0,0,.09.18.09.18-3.96,3.71-9.61,4.59-14.83,4.06-2.9-.06-5.77,1.01-8.65.13-1.13-.26-2.26-.61-3.3-1.23,0,0,.05-.19.05-.19h0Z"/>
      <path class="cls-4" d="M227.51,101.66c3.13-.71,6.16.05,9.08,1.08,3.01.5,6.15-.03,9.16.65,1.99.42,3.97.97,5.85,1.98l-.04.2c-3.14.35-6.13.09-9.14-.67-1.99-.38-3.89-1.38-5.93-1.52-3.09.14-6.2.02-9.01-1.52,0,0,.03-.2.03-.2h0Z"/>
      <path class="cls-4" d="M227.51,109.54c3.6-1.04,7.16-1.02,10.8-.7,3.61-.24,7.08-1.57,10.71-1.77,2.4-.16,4.82-.21,7.29.15l.02.2c-3.47,1.34-7.03,1.94-10.7,2.02-2.41.17-4.87-.31-7.27.04-2.38.47-4.74,1.19-7.21.91-1.22-.08-2.44-.21-3.65-.65l.02-.2h0Z"/>
      <path class="cls-4" d="M299.57,104.63c-7.89,4.03-16.14,7.34-24.69,9.69-8.58,2.36-17.49,2.71-26.25,3.9-17.51,2.47-35.13,3.76-52.82,3.57,0,0-.01-.2-.01-.2,21.88-3.03,43.96-3.53,65.91-5.48,4.34-.63,8.54-2.03,12.7-3.38,8.37-2.64,16.68-5.51,25.08-8.27l.08.18h0Z"/>
      <path class="cls-4" d="M21.02,32.3c4.2-5.11,10.91-10.36,17.92-8.56,3.86,1.32,7.07,4.12,10.77,5.73,2.44.91,5.08,1.31,7.7,1.78,7.93,1.24,15.84,1.42,23.91,1.03,0,0,.04.2.04.2-10.45,2.9-22.18,2.59-32.11-2.02-3.4-2.06-6.52-4.99-10.54-5.63-6.61-.42-12.33,3.96-17.54,7.61,0,0-.14-.14-.14-.14h0Z"/>
      <path class="cls-4" d="M32.11,33.24c1.08-.48,2.08-.62,3.18-.4.5.16,1.02.47,1.55.53,1.07.14,2.05-.66,3.05-.86,1.58-.53,2.99-.59,4.74-.24,0,0,.07.19.07.19-.81.96-1.84,1.47-2.9,1.77-1.09.23-2.22.23-3.32-.07-.55-.13-1.09-.24-1.63-.14-.53.06-1.08.39-1.63.49-.55.11-1.1-.02-1.64-.18-.53-.18-1.05-.45-1.51-.89l.03-.2h0Z"/>
      <path class="cls-4" d="M23.19,40.84c6.6-.62,13.22-1.01,19.83-1.3,6.6-.34,13.26.09,19.84-.57,3.38-.18,6.42-1.4,9.63-2.22,3.23-.85,6.49-1.52,9.82-1.98,1.79-.18,3.38-.49,5.26-.18,1.78.43,3.28,1.01,4.87,1.58,3.12,1.19,6.17,2.5,9.2,3.87l-.4-.08c4.81.08,10.1.29,14.93.54,1.66.11,3.32.19,4.98.34,0,0,0,.2,0,.2-2.82.26-7.07.46-9.95.6-3.32.16-6.64.25-9.95.33-.2.02-.23-.01-.4-.08-2.73-1.09-6.48-2.67-9.17-3.72-2.33-.86-4.24-1.98-6.73-1.76-4.08.22-8.17.79-12.21,1.44-3.28.56-6.47,1.58-9.8,1.75-9.9,1.08-19.8,2.16-29.78,1.9-3.32-.03-6.63-.12-9.96-.42v-.2h0Z"/>
      <path class="cls-4" d="M124.89,68.9c5.53,4.12,12.28,2.26,18.31.5,7.68-1.72,15.26-4.53,23.03-5.86.49-.1,1.06-.22,1.6-.23,6.11-.14,12.21.24,18.29,1.01,0,0,0,.2,0,.2-5.26.59-10.53.77-15.77.88-.65.01-2.19.01-2.81.06-4.1.58-8.52,1.35-12.62,1.93-2.59.41-5.18.91-7.68,1.71-3.51,1-6.66,3.05-10.29,3.76-4.32.77-9.41-.2-12.21-3.82,0,0,.15-.13.15-.13h0Z"/>
      <path class="cls-4" d="M38.39,113.01c8.73.16,17.41.86,25.98,2.49,2.87.63,5.61,1.07,8.56.84,8.34-.52,17.49-2.28,25.85-3.22,2.91-.37,5.82-.69,8.73-1,2.9.2,5.8.39,8.69.67,2.88.26,5.75.54,8.62.93,0,0,0,.2,0,.2-5.49.28-12.31.3-17.16.19-4.96.8-12.23,1.48-17.3,1.94-5.78.5-11.61.57-17.4.89-2.15.11-4.43.22-6.58-.05-9.41-.62-18.75-1.76-28-3.68,0,0,.02-.2.02-.2h0Z"/>
      <path class="cls-4" d="M135.32,121.59c5.21.69,10.43-.5,15.2-2.55,3.02,1.71,6.05,3.34,9.28,4.6,1.55.65,3.45,1.3,4.92,2.14,3,.87,6.2,1.12,9.3,1.53,1.6.19,3.13.42,4.73.17,3.27-.4,6.59-.94,9.96-1.26l.05.19c-3.16,1.24-6.36,2.23-9.71,2.95-1.72.42-3.56.31-5.28.08-3.18-.46-6.4-.94-9.42-2.1-4.32-2.95-9.13-5.3-14.15-6.86,0,0,.64-.03.64-.03-1.19.75-2.4,1.32-3.7,1.73-3.83,1.2-8.19,1.32-11.87-.4,0,0,.06-.19.06-.19h0Z"/>
      <path class="cls-4" d="M293.55,126.23c6.63,1.7,13.06,3.62,19.85,3.78,4.7-.07,8.49-2.95,12.78-4.42,6.45-2.46,13.3-3.89,20.22-4,0,0,.03.2.03.2-6.59,1.96-13.09,3.68-19.64,5.58-2.68.82-5.44,1.75-8.2,2.49-3.99.75-8.01,1.29-12.1,1.08-4.61-.47-9.14-2-13.03-4.52,0,0,.09-.18.09-.18h0Z"/>
      <path class="cls-4" d="M329.65,119.73c4.44-.72,8.89-.94,13.34-.98,4.45.02,8.9.74,13.36.62,4.46-.13,9.03-.15,13.44.7,4.06.6,9.87,2.08,12.77,3.33,2.87.15,5.73.37,8.59.73,0,0,0,.2,0,.2-1.43.18-2.86.33-4.29.45-1.48.08-3.08.31-4.54.25-8.62-1.96-17.09-4.47-25.97-5-4.45-.29-8.9.43-13.33.51-4.45.02-8.89-.07-13.35-.61v-.2h0Z"/>
      <path class="cls-4" d="M133.23,23.21c6,.59,12.09,1.94,17.68-.12,1.11-.5,1.83-1.35,2.54-2.35,1.49-1.97,3.01-3.92,4.66-5.79,1.79-1.94,3.4-3.76,5.97-4.86.43-.14.9-.2,1.35-.1,6.97,1.15,13.9,2.46,20.7,4.53,0,0-.03.2-.03.2-7.15-.32-14.3-1.23-21.21-2.87-.97.16-2.11,1-3.15,1.69-2.96,2.08-5.74,4.55-7.76,7.59-1.19,2.33-3.53,3.97-6.09,4.46-5.02.94-10.12-.22-14.71-2.18,0,0,.06-.19.06-.19h0Z"/>
    </g>
  </g>
</svg>